<?xml version="1.0" standalone="no"?>
<!DOCTYPE svg PUBLIC "-//W3C//DTD SVG 20010904//EN"
 "http://www.w3.org/TR/2001/REC-SVG-20010904/DTD/svg10.dtd">
<svg version="1.0" xmlns="http://www.w3.org/2000/svg"
 width="2880.000000pt" height="836.000000pt" viewBox="0 0 2880.000000 836.000000"
 preserveAspectRatio="xMidYMid meet">

<g transform="translate(0.000000,836.000000) scale(0.100000,-0.100000)"
fill="#000000" stroke="none">
<path d="M391 7900 c-45 -11 -80 -38 -103 -80 -28 -51 -22 -172 10 -218 32
-44 77 -66 137 -66 78 0 130 36 150 102 6 20 3 22 -26 22 -24 0 -39 -8 -58
-31 -53 -63 -140 -31 -157 56 -15 83 26 155 88 155 38 0 78 -24 78 -46 0 -10
12 -14 40 -14 45 0 45 -1 26 44 -24 58 -110 93 -185 76z"/>
<path d="M2000 7720 l0 -180 40 0 40 0 0 180 0 180 -40 0 -40 0 0 -180z"/>
<path d="M1430 7845 c0 -28 -4 -35 -20 -35 -15 0 -20 -7 -20 -25 0 -18 5 -25
20 -25 19 0 20 -7 20 -94 0 -87 2 -96 22 -110 12 -9 39 -16 60 -16 33 0 38 3
38 23 0 14 -9 26 -22 32 -21 9 -23 18 -26 88 -3 77 -3 77 23 77 20 0 25 5 25
25 0 20 -5 25 -25 25 -22 0 -25 4 -25 35 0 33 -2 35 -35 35 -33 0 -35 -2 -35
-35z"/>
<path d="M2737 7874 c-4 -4 -7 -20 -7 -36 0 -21 -5 -28 -20 -28 -15 0 -20 -7
-20 -25 0 -18 5 -25 19 -25 16 0 19 -10 23 -91 4 -81 7 -94 27 -110 14 -11 39
-19 62 -19 34 0 39 3 39 24 0 17 -7 26 -25 30 -24 6 -25 9 -25 86 0 79 0 80
25 80 20 0 25 5 25 25 0 20 -5 25 -24 25 -21 0 -25 6 -28 33 -3 28 -7 32 -33
35 -17 2 -34 0 -38 -4z"/>
<path d="M753 7810 c-12 -5 -26 -17 -32 -27 -10 -16 -10 -16 -11 5 0 18 -5 22
-35 22 l-35 0 0 -135 0 -135 35 0 35 0 0 88 c0 98 14 125 65 125 23 0 26 3 23
30 -3 34 -13 40 -45 27z"/>
<path d="M901 7807 c-46 -16 -73 -56 -79 -115 -5 -61 18 -117 59 -137 15 -8
50 -15 78 -15 39 0 56 6 80 26 17 14 31 32 31 40 0 19 -49 18 -74 -1 -29 -22
-72 -19 -90 7 -31 43 -23 48 80 48 l96 0 -7 36 c-14 77 -42 108 -106 118 -19
3 -49 0 -68 -7z m93 -69 c21 -30 12 -38 -44 -38 -27 0 -51 4 -54 8 -11 18 25
52 54 52 18 0 34 -8 44 -22z"/>
<path d="M1183 7809 c-29 -8 -63 -41 -63 -61 0 -12 68 -10 75 2 9 14 58 13 73
-2 7 -7 12 -20 12 -30 0 -15 -8 -18 -44 -18 -82 0 -126 -30 -126 -85 0 -66 96
-101 147 -53 l23 21 0 -21 c0 -18 6 -22 35 -22 l35 0 0 106 c0 58 -5 114 -11
126 -12 23 -67 48 -101 47 -13 0 -37 -5 -55 -10z m97 -167 c0 -47 -90 -72 -99
-28 -4 26 25 46 66 46 25 0 33 -4 33 -18z"/>
<path d="M1665 7806 c-64 -29 -90 -90 -73 -170 13 -64 53 -96 119 -96 60 0
101 19 117 54 11 25 10 26 -22 26 -18 0 -39 -7 -46 -15 -28 -33 -100 -6 -100
38 0 15 13 17 90 17 l90 0 0 33 c0 36 -30 91 -57 105 -34 19 -87 22 -118 8z
m95 -65 c18 -35 12 -41 -45 -41 -57 0 -63 6 -45 41 7 13 21 19 45 19 24 0 38
-6 45 -19z"/>
<path d="M2270 7813 c-8 -3 -25 -15 -37 -26 l-23 -20 0 21 c0 18 -6 22 -35 22
l-35 0 0 -135 0 -135 35 0 35 0 0 79 c0 97 11 128 46 137 47 12 64 -22 64
-127 l0 -89 35 0 35 0 0 103 c0 84 -4 108 -20 135 -11 17 -25 32 -32 32 -7 0
-22 2 -33 5 -11 2 -27 1 -35 -2z"/>
<path d="M2493 7806 c-87 -39 -63 -136 38 -152 49 -8 74 -26 66 -48 -8 -21
-70 -22 -87 -1 -14 17 -80 21 -80 4 0 -6 13 -24 29 -40 26 -26 36 -29 89 -29
50 0 66 4 91 26 34 28 41 67 18 98 -7 10 -42 26 -77 35 -49 14 -65 22 -65 36
0 32 31 42 66 23 40 -23 82 -24 77 -2 -9 47 -107 76 -165 50z"/>
<path d="M2970 7809 c-33 -14 -60 -39 -60 -57 0 -11 8 -13 38 -8 20 4 53 8 72
9 31 2 35 -1 38 -25 3 -27 1 -28 -38 -28 -86 0 -139 -46 -124 -106 13 -50 94
-72 142 -38 20 14 22 14 22 0 0 -12 11 -16 41 -16 l41 0 -4 110 c-3 101 -5
112 -28 135 -29 28 -100 41 -140 24z m90 -172 c0 -30 -18 -47 -51 -47 -31 0
-52 21 -43 43 6 17 24 24 67 26 22 1 27 -3 27 -22z"/>
<path d="M3305 7808 c-11 -6 -26 -18 -32 -26 -11 -14 -13 -13 -13 6 0 18 -6
22 -35 22 l-35 0 0 -135 0 -135 35 0 35 0 0 90 c0 78 3 93 21 111 26 26 60 21
76 -11 7 -14 13 -61 13 -107 l0 -83 35 0 35 0 0 88 c0 120 -12 160 -55 178
-41 17 -53 17 -80 2z"/>
<path d="M3561 7807 c-45 -16 -72 -54 -78 -110 -12 -101 37 -157 135 -157 46
0 58 4 83 29 39 40 38 61 -4 61 -21 0 -36 -7 -45 -20 -18 -29 -56 -25 -82 8
-18 21 -21 36 -17 71 5 48 26 71 64 71 12 0 28 -9 35 -20 15 -23 78 -29 78 -7
0 23 -32 59 -66 73 -40 17 -58 17 -103 1z"/>
<path d="M3853 7813 c-33 -7 -70 -47 -84 -91 -17 -57 -4 -109 36 -149 29 -29
39 -33 88 -33 45 0 61 5 86 26 17 14 31 32 31 40 0 19 -54 18 -70 -1 -13 -16
-57 -20 -76 -7 -11 7 -34 45 -34 56 0 3 43 6 95 6 95 0 95 0 95 25 0 38 -25
92 -52 108 -26 17 -82 27 -115 20z m82 -69 c25 -26 12 -39 -43 -42 -45 -3 -52
-1 -52 15 0 42 62 59 95 27z"/>
<path d="M3890 5980 l0 -150 25 0 c23 0 25 4 25 45 0 58 15 58 58 0 24 -33 40
-45 58 -45 25 0 24 1 -20 59 -25 33 -46 63 -46 67 0 5 19 28 42 51 34 35 38
43 23 43 -11 0 -41 -21 -67 -47 l-48 -47 0 87 c0 86 0 87 -25 87 l-25 0 0
-150z"/>
<path d="M2000 5975 c0 -138 1 -145 20 -145 18 0 20 7 20 60 l0 60 65 0 c58 0
65 2 65 20 0 18 -7 20 -66 20 l-65 0 3 43 3 42 68 3 c59 3 67 5 67 22 0 18 -7
20 -90 20 l-90 0 0 -145z"/>
<path d="M2230 5940 c0 -103 1 -110 20 -110 18 0 20 7 20 74 0 82 13 106 56
106 17 0 24 5 24 20 0 24 -26 26 -58 4 -20 -14 -22 -14 -22 0 0 9 -9 16 -20
16 -19 0 -20 -7 -20 -110z"/>
<path d="M2430 6043 c-20 -7 -50 -34 -50 -45 0 -12 24 -10 55 6 28 15 54 11
67 -8 16 -24 6 -34 -39 -41 -62 -9 -93 -29 -93 -60 0 -54 69 -83 118 -49 20
14 22 14 22 0 0 -9 9 -16 20 -16 19 0 20 7 20 89 0 85 -1 91 -26 110 -26 20
-62 26 -94 14z m80 -128 c0 -21 -36 -55 -58 -55 -41 0 -56 45 -19 60 36 14 77
12 77 -5z"/>
<path d="M2607 6043 c-4 -3 -7 -53 -7 -110 l0 -103 25 0 c25 0 25 1 25 79 0
85 10 105 52 99 22 -3 23 -8 26 -90 3 -86 3 -88 27 -88 24 0 25 2 25 78 0 83
9 102 47 102 31 0 43 -33 43 -116 0 -57 2 -64 20 -64 18 0 20 7 20 84 0 69 -4
88 -21 110 -25 31 -70 35 -97 8 -18 -18 -19 -18 -42 0 -27 22 -63 23 -81 2
-11 -14 -13 -14 -21 0 -9 17 -30 21 -41 9z"/>
<path d="M3003 6040 c-58 -24 -70 -143 -18 -187 34 -30 93 -31 129 -2 14 11
26 25 26 30 0 14 -33 10 -54 -6 -36 -27 -77 -12 -91 33 -6 21 -4 22 69 22 l76
0 0 31 c0 63 -72 105 -137 79z m91 -53 c15 -24 4 -28 -55 -25 l-54 3 27 27
c21 22 32 26 49 19 13 -4 28 -15 33 -24z"/>
<path d="M3178 6045 c-3 -3 3 -36 14 -73 10 -37 23 -84 29 -105 8 -31 14 -38
32 -35 18 2 25 16 42 76 11 39 22 72 26 72 3 0 15 -33 26 -72 17 -64 22 -73
43 -73 20 0 25 9 45 80 38 142 38 135 16 135 -21 0 -22 -3 -41 -90 -17 -76
-26 -89 -33 -51 -18 89 -39 141 -56 141 -14 0 -23 -19 -41 -85 -13 -47 -24
-84 -26 -82 -2 2 -12 39 -22 83 -12 52 -23 80 -33 82 -8 1 -17 0 -21 -3z"/>
<path d="M3543 6040 c-58 -24 -70 -143 -18 -187 64 -56 165 -9 165 77 0 93
-66 142 -147 110z m85 -43 c54 -65 -13 -177 -71 -118 -25 25 -29 89 -8 115 16
19 64 21 79 3z"/>
<path d="M3740 5940 c0 -103 1 -110 20 -110 18 0 20 7 20 74 0 82 13 106 56
106 17 0 24 5 24 20 0 25 -36 27 -62 3 -17 -15 -18 -15 -18 0 0 10 -8 17 -20
17 -19 0 -20 -7 -20 -110z"/>
<path d="M8410 5840 c0 -127 2 -150 15 -150 12 0 15 15 15 78 0 85 14 112 58
112 36 0 52 -37 52 -117 0 -60 3 -73 16 -73 24 0 17 172 -8 197 -24 24 -84 22
-103 -2 -13 -18 -14 -15 -15 43 0 48 -3 62 -15 62 -13 0 -15 -23 -15 -150z"/>
<path d="M7160 5836 c0 -123 2 -146 15 -146 11 0 15 12 15 49 l0 48 60 7 c47
6 63 12 80 33 27 34 26 85 -2 118 -20 22 -34 27 -95 32 l-73 6 0 -147z m147
88 c35 -49 6 -95 -65 -102 l-52 -5 0 68 0 68 52 -5 c34 -4 56 -12 65 -24z"/>
<path d="M7590 5965 c0 -11 12 -15 45 -15 l45 0 0 -130 c0 -109 2 -130 15
-130 13 0 15 21 15 130 l0 130 45 0 c33 0 45 4 45 15 0 12 -18 15 -105 15 -87
0 -105 -3 -105 -15z"/>
<path d="M8858 5953 c-21 -14 -38 -32 -38 -39 0 -19 7 -18 41 7 l29 20 0 -125
c0 -105 2 -126 15 -126 13 0 15 23 15 145 0 161 0 161 -62 118z"/>
<path d="M9123 5965 c-12 -8 -27 -31 -33 -50 -30 -90 79 -164 145 -99 9 9 18
15 20 12 8 -8 -14 -81 -29 -96 -20 -21 -71 -19 -95 2 -31 28 -46 15 -21 -17
17 -21 30 -27 61 -27 50 0 75 13 93 48 36 70 27 172 -19 218 -28 28 -88 33
-122 9z m107 -37 c26 -28 25 -56 -2 -85 -41 -44 -110 -18 -110 42 0 59 71 86
112 43z"/>
<path d="M16860 5965 c0 -8 -16 -21 -35 -29 -68 -29 -73 -103 -7 -134 30 -14
38 -23 40 -51 5 -45 -10 -59 -37 -32 -24 24 -51 28 -51 8 0 -18 28 -43 63 -56
15 -6 27 -17 27 -26 0 -8 5 -15 10 -15 6 0 10 8 10 18 0 11 11 21 32 27 72 22
73 112 2 135 -31 11 -34 15 -34 51 0 44 21 54 40 19 14 -26 40 -26 40 -1 0 21
-44 61 -66 61 -8 0 -14 9 -14 20 0 11 -4 20 -10 20 -5 0 -10 -7 -10 -15z m0
-100 c0 -38 -10 -44 -34 -19 -19 19 -20 26 -4 42 23 23 38 13 38 -23z m54
-101 c9 -8 16 -19 16 -24 0 -11 -29 -40 -41 -40 -5 0 -9 18 -9 40 0 43 9 49
34 24z"/>
<path d="M10565 5920 l-49 -50 104 0 104 0 -49 50 c-27 28 -52 50 -55 50 -3 0
-28 -22 -55 -50z"/>
<path d="M18142 5783 c-23 -98 -42 -181 -42 -185 0 -5 8 -8 18 -8 15 0 24 27
57 168 21 92 40 175 43 185 3 12 -2 17 -15 17 -17 0 -25 -23 -61 -177z"/>
<path d="M18250 5810 c0 -143 1 -150 20 -150 18 0 20 7 20 68 0 76 17 112 54
112 37 0 46 -19 46 -102 0 -71 2 -78 20 -78 19 0 20 7 20 90 0 77 -3 93 -20
110 -24 24 -72 26 -90 5 -22 -27 -30 -16 -30 40 0 48 -2 55 -20 55 -19 0 -20
-7 -20 -150z"/>
<path d="M12875 5928 c-52 -41 -69 -124 -40 -195 18 -42 37 -59 83 -72 60 -18
142 22 142 69 0 25 -25 26 -42 1 -48 -69 -143 -38 -149 49 -4 54 2 80 24 106
31 36 83 36 114 0 12 -14 31 -26 43 -26 20 0 20 1 5 29 -22 43 -53 61 -106 61
-32 0 -55 -7 -74 -22z"/>
<path d="M17063 5928 c-34 -38 -43 -64 -43 -123 0 -100 34 -147 107 -147 101
0 141 185 58 268 -32 32 -93 33 -122 2z m96 -34 c16 -20 21 -41 21 -85 0 -69
-15 -107 -46 -115 -30 -8 -43 1 -60 42 -25 59 -13 144 23 172 25 18 39 15 62
-14z"/>
<path d="M17399 5921 c-16 -16 -29 -34 -29 -40 0 -17 40 -13 47 5 15 39 89 38
99 -2 8 -32 -9 -50 -51 -58 -47 -9 -47 -36 -2 -36 47 0 74 -31 59 -65 -15 -32
-55 -42 -87 -21 -14 9 -25 21 -25 26 0 6 -9 10 -20 10 -29 0 -25 -34 6 -59 39
-31 117 -29 149 4 16 15 25 36 25 54 0 30 -5 38 -45 66 -17 13 -18 14 -3 15
43 0 51 79 12 109 -41 32 -98 28 -135 -8z"/>
<path d="M17649 5921 c-21 -22 -29 -39 -29 -66 0 -27 8 -44 29 -66 36 -35 77
-38 116 -7 l28 22 -6 -39 c-11 -67 -67 -95 -108 -54 -11 11 -30 19 -42 17 -21
-3 -20 -4 9 -37 25 -28 37 -34 72 -34 78 0 116 59 110 166 -3 63 -7 72 -36 98
-45 41 -102 40 -143 0z m109 -17 c26 -18 30 -75 7 -94 -24 -20 -67 -15 -87 10
-24 29 -23 49 4 77 25 27 45 29 76 7z"/>
<path d="M17906 5924 c-31 -32 -34 -54 -6 -54 11 0 20 4 20 10 0 18 48 42 70
35 27 -9 41 -44 27 -70 -5 -11 -39 -51 -74 -89 -34 -38 -63 -75 -63 -82 0 -11
21 -14 95 -14 88 0 95 1 95 20 0 18 -7 20 -60 20 -33 0 -60 3 -60 7 0 4 25 33
55 63 70 70 81 115 42 154 -37 37 -104 37 -141 0z"/>
<path d="M13580 5905 c0 -16 -6 -25 -15 -25 -8 0 -15 -9 -15 -20 0 -11 7 -20
15 -20 12 0 15 -15 15 -74 0 -84 13 -106 61 -106 35 0 39 21 7 35 -20 9 -23
19 -26 78 -3 66 -3 67 23 67 33 0 31 33 -3 38 -16 3 -22 10 -22 28 0 17 -5 24
-20 24 -15 0 -20 -7 -20 -25z"/>
<path d="M7854 5896 c-61 -27 -73 -137 -19 -183 62 -54 155 -7 155 77 0 55
-23 95 -61 109 -39 13 -37 13 -75 -3z m80 -29 c28 -20 33 -96 9 -126 -21 -26
-64 -31 -88 -11 -18 15 -29 71 -20 99 15 48 62 65 99 38z"/>
<path d="M8096 5889 c-21 -17 -26 -18 -26 -5 0 9 -7 16 -15 16 -12 0 -15 -18
-15 -105 0 -87 3 -105 15 -105 12 0 15 14 15 64 0 85 11 112 49 121 17 4 31
13 31 21 0 20 -23 17 -54 -7z"/>
<path d="M8245 5903 c-31 -8 -54 -33 -64 -71 -21 -75 20 -142 87 -142 37 0 82
28 82 50 0 16 -27 11 -34 -5 -8 -22 -69 -19 -89 3 -10 11 -17 36 -17 60 0 73
58 106 106 61 33 -31 52 -19 23 13 -25 27 -60 38 -94 31z"/>
<path d="M7400 5893 c0 -5 16 -51 35 -103 40 -105 39 -136 -1 -146 -17 -4 -22
-10 -15 -17 19 -19 57 1 74 40 31 69 86 227 82 231 -14 14 -34 -15 -55 -82
-13 -43 -27 -79 -30 -81 -3 -2 -19 34 -34 81 -17 54 -32 84 -42 84 -8 0 -14
-3 -14 -7z"/>
<path d="M13164 5870 c-35 -14 -54 -50 -54 -103 0 -40 5 -53 29 -78 49 -48
125 -38 156 21 50 98 -33 200 -131 160z m86 -45 c33 -40 4 -135 -42 -135 -50
0 -78 91 -41 132 20 22 66 24 83 3z"/>
<path d="M13378 5860 c-52 -40 -28 -91 50 -106 41 -8 59 -29 42 -49 -7 -8 -23
-15 -36 -15 -12 0 -29 7 -38 15 -19 19 -46 19 -46 1 0 -44 113 -63 150 -26 42
42 18 88 -55 105 -54 12 -70 36 -35 55 15 8 28 7 55 -6 45 -21 62 -15 38 14
-27 34 -90 40 -125 12z"/>
<path d="M18490 5770 c0 -103 1 -110 20 -110 18 0 20 7 20 74 0 82 13 106 56
106 17 0 24 5 24 20 0 24 -26 26 -58 4 -20 -14 -22 -14 -22 0 0 9 -9 16 -20
16 -19 0 -20 -7 -20 -110z"/>
<path d="M8630 5805 c0 -12 14 -15 65 -15 51 0 65 3 65 15 0 12 -14 15 -65 15
-51 0 -65 -3 -65 -15z"/>
<path d="M10562 5775 c26 -25 51 -45 55 -45 5 0 31 20 58 45 l50 44 -105 0
-105 1 47 -45z"/>
<path d="M9003 5724 c-7 -19 11 -39 26 -30 16 10 13 33 -4 40 -9 3 -18 -1 -22
-10z"/>
<path d="M17272 5688 c2 -15 10 -23 23 -23 13 0 21 8 23 23 3 18 -1 22 -23 22
-22 0 -26 -4 -23 -22z"/>
<path d="M2045 5038 c-105 -82 -51 -271 77 -271 72 0 115 40 120 113 l3 35
-57 3 c-53 3 -58 1 -58 -18 0 -16 6 -20 36 -20 31 0 35 -3 32 -21 -2 -12 -15
-31 -30 -42 -57 -43 -129 11 -130 97 -2 79 50 125 115 103 15 -5 32 -18 38
-28 11 -21 49 -26 49 -6 -1 17 -31 53 -57 66 -37 19 -107 14 -138 -11z"/>
<path d="M2300 4915 c0 -137 1 -145 19 -145 17 0 20 8 23 48 l3 47 56 5 c66 6
96 27 105 75 8 44 -17 90 -57 104 -18 6 -58 11 -90 11 l-59 0 0 -145z m144 89
c20 -19 21 -68 2 -83 -8 -7 -34 -13 -58 -14 l-43 -2 -3 58 -3 57 45 0 c27 0
51 -6 60 -16z"/>
<path d="M2560 4946 c0 -99 3 -117 21 -139 40 -52 141 -55 185 -6 16 18 20 40
22 140 4 115 3 119 -17 119 -20 0 -21 -5 -21 -105 0 -99 -2 -107 -25 -130 -13
-14 -36 -25 -50 -25 -14 0 -37 11 -50 25 -23 23 -25 31 -25 130 0 98 -1 105
-20 105 -19 0 -20 -7 -20 -114z"/>
<path d="M2940 5040 c0 -17 7 -20 45 -20 l45 0 0 -125 c0 -118 1 -125 20 -125
19 0 20 7 20 125 l0 125 45 0 c38 0 45 3 45 20 0 19 -7 20 -110 20 -103 0
-110 -1 -110 -20z"/>
<path d="M12830 4866 c0 -139 1 -146 20 -146 18 0 20 7 20 55 l0 55 34 0 c32
0 37 -5 63 -52 22 -41 34 -54 55 -56 l27 -3 -30 55 -31 56 26 31 c32 38 33 79
3 115 -21 24 -32 28 -105 32 l-82 5 0 -147z m148 92 c7 -7 12 -24 12 -38 0
-38 -18 -50 -72 -50 l-48 0 0 50 0 50 48 0 c26 0 53 -5 60 -12z"/>
<path d="M13175 4998 c-2 -7 -25 -69 -50 -137 -25 -69 -45 -128 -45 -133 0 -5
10 -8 22 -6 14 2 25 14 33 38 11 34 14 35 68 38 l56 3 12 -41 c10 -31 17 -40
35 -40 23 0 23 0 -16 110 -60 168 -66 180 -90 180 -11 0 -23 -6 -25 -12z m62
-139 c5 -28 4 -29 -36 -29 -22 0 -41 2 -41 4 0 4 27 82 36 106 7 17 31 -30 41
-81z"/>
<path d="M13377 5004 c-4 -4 -7 -70 -7 -146 0 -131 1 -138 20 -138 18 0 20 8
22 108 l3 107 44 -107 c30 -76 48 -108 60 -108 11 0 28 30 56 103 l40 102 3
-102 c2 -95 4 -103 22 -103 19 0 20 8 20 145 l0 145 -23 0 c-20 0 -28 -11 -52
-72 -16 -40 -37 -93 -47 -118 l-20 -45 -46 115 c-36 89 -52 116 -67 118 -12 2
-24 0 -28 -4z"/>
<path d="M13830 4830 c0 -173 1 -180 20 -180 19 0 20 7 20 180 0 173 -1 180
-20 180 -19 0 -20 -7 -20 -180z"/>
<path d="M14088 4994 c-39 -20 -58 -64 -58 -129 0 -56 16 -101 44 -124 24 -20
84 -30 121 -20 53 15 101 89 58 89 -10 0 -26 -11 -38 -25 -51 -63 -132 -30
-142 58 -7 61 12 106 51 122 35 15 81 3 97 -26 5 -10 19 -19 29 -19 23 0 24 1
8 35 -23 51 -111 71 -170 39z"/>
<path d="M16815 4998 c-41 -22 -61 -68 -29 -68 9 0 23 9 32 19 26 30 56 34 83
12 20 -16 22 -22 12 -44 -8 -17 -23 -27 -47 -31 -48 -9 -49 -36 -1 -36 63 0
84 -76 26 -95 -28 -9 -70 5 -82 26 -14 27 -49 26 -42 -1 16 -61 131 -83 178
-35 35 34 33 78 -4 106 l-30 22 25 19 c51 41 10 118 -63 118 -21 0 -47 -6 -58
-12z"/>
<path d="M17045 4985 c-30 -29 -32 -55 -5 -55 11 0 20 4 20 10 0 5 11 17 25
26 38 25 75 6 75 -37 0 -25 -14 -45 -70 -103 -96 -99 -94 -106 25 -106 88 0
95 1 95 20 0 18 -7 20 -67 20 l-66 0 60 63 c64 67 81 104 62 140 -19 35 -41
46 -87 47 -32 0 -49 -6 -67 -25z"/>
<path d="M17316 4989 c-37 -29 -56 -71 -56 -124 0 -91 46 -145 124 -148 78 -3
126 42 126 118 l0 35 -55 0 c-48 0 -55 -2 -55 -20 0 -16 7 -20 35 -20 39 0 44
-13 20 -47 -20 -29 -58 -36 -99 -19 -28 12 -37 23 -46 57 -6 23 -9 56 -6 74
14 74 101 103 150 50 24 -26 56 -34 56 -14 0 6 -15 26 -34 45 -30 30 -41 34
-84 34 -35 0 -57 -6 -76 -21z"/>
<path d="M17570 4865 l0 -147 84 3 c104 5 129 21 124 83 -2 33 -8 43 -30 54
l-27 12 25 25 c29 29 31 55 6 85 -16 20 -31 24 -100 28 l-82 5 0 -148z m144
89 c33 -32 7 -64 -54 -67 l-45 -2 -3 43 -3 42 45 0 c27 0 51 -6 60 -16z m10
-120 c19 -18 21 -45 4 -62 -7 -7 -36 -12 -65 -12 l-53 0 0 45 0 45 49 0 c32 0
55 -6 65 -16z"/>
<path d="M17940 4830 c0 -153 2 -180 15 -180 13 0 15 27 15 180 0 153 -2 180
-15 180 -13 0 -15 -27 -15 -180z"/>
<path d="M18130 4990 c0 -18 7 -20 76 -20 l76 0 -66 -125 c-62 -117 -64 -125
-43 -125 19 0 32 20 85 125 34 69 62 134 62 145 0 19 -7 20 -95 20 -88 0 -95
-1 -95 -20z"/>
<path d="M3170 4986 c0 -2 18 -53 39 -112 42 -114 42 -144 0 -144 -14 0 -19
-5 -17 -17 4 -23 45 -19 71 6 14 14 107 246 107 268 0 2 -10 3 -22 1 -19 -2
-27 -17 -47 -85 -13 -46 -27 -83 -31 -83 -3 0 -17 37 -30 83 -21 68 -29 83
-48 85 -12 2 -22 1 -22 -2z"/>
<path d="M3410 4845 c0 -138 1 -145 20 -145 17 0 20 7 20 51 0 50 0 50 22 35
70 -50 151 24 133 121 -13 72 -90 108 -135 63 l-20 -20 0 20 c0 13 -7 20 -20
20 -19 0 -20 -7 -20 -145z m140 86 c5 -11 10 -38 10 -60 0 -40 -25 -71 -57
-71 -44 0 -70 95 -36 132 22 24 69 24 83 -1z"/>
<path d="M3687 4970 c-52 -41 -55 -149 -4 -185 44 -31 147 -10 147 31 0 19
-12 18 -49 -3 -28 -16 -33 -17 -58 -3 -16 9 -29 26 -31 38 -3 21 0 22 72 22
70 0 76 2 76 20 0 80 -92 128 -153 80z m101 -54 c3 -13 -6 -16 -48 -16 -43 0
-51 3 -48 17 5 28 49 45 73 29 11 -7 21 -21 23 -30z"/>
<path d="M14363 4930 c-58 -24 -70 -143 -18 -187 64 -56 165 -9 165 77 0 93
-66 142 -147 110z m85 -43 c54 -65 -13 -177 -71 -118 -25 25 -29 89 -8 115 16
19 64 21 79 3z"/>
<path d="M14560 4830 c0 -103 1 -110 20 -110 18 0 20 7 20 74 0 82 13 106 56
106 17 0 24 5 24 20 0 25 -36 27 -62 3 -17 -15 -18 -15 -18 0 0 10 -8 17 -20
17 -19 0 -20 -7 -20 -110z"/>
<path d="M14729 4911 c-23 -24 -29 -38 -29 -75 0 -82 31 -116 106 -116 25 0
43 8 62 27 23 24 25 28 10 31 -10 2 -28 -4 -40 -12 -30 -21 -54 -20 -78 4 -39
39 -27 50 56 50 l77 0 -6 38 c-13 80 -101 109 -158 53z m108 -30 c21 -27 15
-31 -42 -31 -57 0 -64 5 -42 32 23 30 60 30 84 -1z"/>
<path d="M14956 4917 c-44 -44 -28 -80 44 -101 50 -15 74 -41 50 -56 -22 -14
-56 -12 -70 5 -16 19 -50 20 -50 1 0 -24 41 -46 85 -46 110 0 117 106 8 126
-44 8 -59 27 -38 48 20 20 36 20 61 1 21 -16 54 -20 54 -7 0 19 -41 44 -78 49
-34 5 -45 1 -66 -20z"/>
<path d="M10565 4885 l-50 -44 105 -1 104 0 -49 45 c-28 24 -52 44 -55 45 -3
0 -28 -20 -55 -45z"/>
<path d="M7150 4795 c0 -104 2 -125 15 -125 11 0 15 12 15 50 l0 50 35 0 c32
0 37 -4 60 -50 14 -27 32 -50 40 -50 19 0 20 -1 -12 55 -24 43 -25 49 -10 60
25 18 38 61 27 89 -13 35 -40 46 -109 46 l-61 0 0 -125z m113 96 c30 -12 42
-43 27 -71 -9 -16 -21 -20 -60 -20 l-50 0 0 43 c0 24 3 47 7 50 9 10 48 9 76
-2z"/>
<path d="M7370 4911 c0 -6 17 -11 38 -13 l37 -3 3 -112 c2 -91 5 -113 17 -113
12 0 15 21 15 115 l0 115 40 0 c22 0 40 5 40 10 0 6 -38 10 -95 10 -53 0 -95
-4 -95 -9z"/>
<path d="M7600 4915 c0 -3 16 -29 35 -58 19 -28 35 -55 35 -60 0 -4 -18 -35
-40 -68 -51 -74 -29 -82 25 -8 l37 50 35 -50 c18 -28 40 -51 49 -51 17 0 16 3
-26 65 -15 22 -30 45 -33 51 -4 6 11 37 33 68 45 64 46 66 26 66 -8 0 -28 -22
-46 -50 -18 -27 -33 -50 -35 -50 -2 0 -17 23 -35 50 -18 28 -38 50 -46 50 -8
0 -14 -2 -14 -5z"/>
<path d="M7855 4908 c-2 -7 -5 -39 -8 -70 -4 -61 3 -69 37 -43 11 8 28 15 38
15 24 0 58 -35 58 -60 0 -26 -34 -60 -60 -60 -11 0 -29 9 -40 20 -21 21 -40
26 -40 12 0 -20 48 -52 79 -52 45 0 67 14 80 51 24 69 -34 127 -101 101 -27
-10 -28 -9 -28 18 0 53 8 60 66 60 30 0 54 5 54 10 0 15 -130 13 -135 -2z"/>
<path d="M8086 4901 c-42 -46 -42 -166 0 -208 52 -51 126 -15 137 68 8 53 -5
113 -29 140 -11 12 -30 19 -54 19 -24 0 -43 -7 -54 -19z m90 -22 c14 -16 19
-36 19 -84 0 -67 -20 -105 -55 -105 -35 0 -55 38 -55 105 0 67 20 105 55 105
9 0 25 -9 36 -21z"/>
<path d="M8306 4901 c-42 -46 -42 -166 0 -208 52 -51 126 -15 137 68 8 53 -5
113 -29 140 -11 12 -30 19 -54 19 -24 0 -43 -7 -54 -19z m90 -22 c14 -16 19
-36 19 -84 0 -67 -20 -105 -55 -105 -35 0 -55 38 -55 105 0 67 20 105 55 105
9 0 25 -9 36 -21z"/>
<path d="M8542 4914 c-39 -17 -57 -147 -27 -204 26 -51 94 -54 129 -7 30 40
30 144 0 184 -21 27 -69 40 -102 27z m83 -44 c18 -35 20 -109 3 -145 -13 -29
-52 -43 -73 -25 -22 18 -38 78 -32 117 14 81 72 112 102 53z"/>
<path d="M8913 4898 c-46 -32 -44 -56 2 -28 l35 22 0 -111 c0 -67 4 -111 10
-111 6 0 10 48 10 125 0 138 -2 141 -57 103z"/>
<path d="M9075 4896 c-47 -47 -42 -176 8 -211 81 -56 177 41 116 119 -24 30
-72 35 -107 10 -21 -14 -22 -14 -22 9 0 57 68 98 104 62 16 -16 36 -20 36 -7
0 20 -39 42 -74 42 -26 0 -44 -7 -61 -24z m93 -102 c42 -29 16 -104 -37 -104
-44 0 -66 67 -34 102 20 22 42 23 71 2z"/>
<path d="M9307 4900 c-57 -45 -49 -187 12 -220 11 -5 38 -10 61 -10 56 0 100
42 100 95 l0 36 -47 -3 c-56 -4 -73 -28 -19 -28 29 0 36 -4 36 -19 0 -11 -12
-29 -27 -41 -51 -40 -115 -7 -129 66 -18 95 80 163 141 98 35 -38 53 -25 20
14 -23 28 -33 32 -75 32 -32 0 -55 -6 -73 -20z"/>
<path d="M9540 4795 l0 -125 54 0 c68 0 104 13 115 42 11 31 -6 75 -32 82
l-22 6 23 16 c17 12 22 24 20 47 -4 40 -35 57 -105 57 l-53 0 0 -125z m103 96
c59 -23 26 -85 -41 -79 -32 3 -37 7 -40 31 -2 16 -1 35 2 43 6 16 43 18 79 5z
m16 -111 c25 -13 33 -37 21 -61 -9 -15 -22 -19 -65 -19 l-55 0 0 38 c0 21 3
42 7 45 10 10 72 8 92 -3z"/>
<path d="M10568 4738 l52 -53 52 53 53 52 -105 0 -105 0 53 -52z"/>
<path d="M8720 4770 c0 -5 25 -10 55 -10 30 0 55 5 55 10 0 6 -25 10 -55 10
-30 0 -55 -4 -55 -10z"/>
<path d="M24205 4478 c-56 -30 -55 -18 -55 -471 l0 -419 29 -29 29 -29 1207 0
1207 0 29 29 29 29 0 417 c0 266 -4 423 -10 436 -28 51 22 49 -1257 49 -845
-1 -1194 -4 -1208 -12z m669 -274 c37 -36 13 -138 -45 -199 -31 -33 -39 -48
-39 -79 0 -51 -13 -72 -60 -96 -60 -31 -70 -27 -70 25 0 43 -1 44 -28 39 -37
-8 -77 33 -68 70 6 25 5 26 -39 26 -25 0 -45 5 -45 10 0 22 50 108 65 114 9 3
33 6 53 6 28 0 44 8 73 36 59 58 168 84 203 48z m1306 -100 c0 -55 0 -55 22
-40 31 22 74 20 98 -4 17 -17 20 -33 20 -110 0 -70 -3 -90 -14 -90 -10 0 -15
20 -18 81 -4 88 -21 116 -62 103 -36 -11 -41 -23 -45 -104 -2 -60 -7 -80 -17
-80 -11 0 -14 28 -14 150 0 127 2 150 15 150 12 0 15 -13 15 -56z m-1118 -81
l3 -128 68 -3 c51 -2 67 -6 67 -17 0 -12 -17 -15 -85 -15 l-85 0 0 145 c0 121
2 145 15 145 12 0 15 -23 17 -127z m322 36 c25 -19 26 -25 26 -110 0 -82 -1
-89 -20 -89 -11 0 -20 5 -20 10 0 7 -6 7 -19 0 -53 -28 -114 0 -114 51 0 40
22 57 85 65 38 5 48 11 48 25 0 30 -36 43 -72 25 -45 -23 -61 -21 -48 5 22 41
92 51 134 18z m116 -62 c0 -87 8 -107 45 -107 42 0 50 16 55 102 4 69 8 83 23
86 15 3 17 -7 17 -107 0 -104 -1 -111 -20 -111 -11 0 -20 5 -20 12 0 9 -3 9
-12 0 -16 -16 -80 -15 -103 2 -16 12 -20 29 -23 95 -5 90 0 111 23 111 12 0
15 -15 15 -83z m230 67 c0 -14 2 -14 22 0 31 22 68 20 95 -6 21 -19 23 -30 23
-110 0 -81 -2 -88 -20 -88 -18 0 -20 7 -20 85 0 80 -2 86 -22 94 -54 20 -78
-12 -78 -106 0 -66 -2 -73 -20 -73 -19 0 -20 7 -20 103 0 57 3 107 7 110 12
13 33 7 33 -9z m330 1 c17 -9 30 -17 30 -19 0 -3 3 -11 6 -20 8 -20 -24 -22
-40 -2 -20 25 -52 28 -77 7 -20 -16 -24 -28 -23 -67 1 -33 6 -51 19 -61 27
-19 63 -16 82 7 19 22 43 27 43 8 0 -27 -43 -58 -82 -58 -53 0 -77 15 -95 57
-21 50 -9 106 29 138 34 29 66 32 108 10z"/>
<path d="M24760 4115 c0 -20 5 -25 24 -25 25 0 36 15 29 38 -3 6 -16 12 -29
12 -19 0 -24 -5 -24 -25z"/>
<path d="M25300 3951 c-15 -4 -25 -14 -25 -25 0 -51 87 -44 93 7 3 23 0 27
-20 26 -13 -1 -34 -4 -48 -8z"/>
<path d="M16990 4131 c-69 -21 -122 -66 -156 -131 -26 -52 -25 -153 3 -206 28
-53 91 -107 142 -122 26 -8 157 -12 410 -12 l372 0 -25 33 c-14 18 -38 60 -53
92 -39 85 -39 202 -2 293 l27 62 -347 -1 c-190 0 -357 -4 -371 -8z m26 -123
c9 -18 28 -50 41 -72 l25 -38 41 71 c32 56 46 71 64 71 13 0 23 -3 23 -7 0 -4
-25 -46 -55 -94 -50 -78 -55 -92 -55 -143 0 -49 -2 -56 -20 -56 -18 0 -20 7
-20 57 0 52 -5 65 -55 144 -30 48 -55 89 -55 93 0 3 11 6 25 6 18 0 29 -9 41
-32z m325 -58 c24 -13 49 -61 49 -94 0 -25 -2 -25 -80 -28 l-79 -3 12 -25 c17
-34 70 -40 89 -11 13 21 48 29 48 12 0 -34 -46 -71 -89 -71 -104 0 -139 148
-51 217 19 15 75 17 101 3z m226 -12 c13 -12 23 -27 23 -35 0 -18 -37 -16 -44
3 -4 11 -17 14 -43 12 -59 -5 -49 -30 20 -51 44 -14 61 -25 68 -44 17 -45 -23
-92 -79 -93 -53 0 -92 26 -92 63 0 24 36 22 43 -3 4 -15 14 -20 40 -20 36 0
61 18 49 37 -4 6 -27 16 -52 23 -79 21 -101 61 -58 107 29 31 92 32 125 1z"/>
<path d="M17252 3908 c-26 -26 -13 -38 44 -38 56 0 56 0 42 23 -17 25 -67 34
-86 15z"/>
<path d="M14500 4065 l0 -55 -25 16 c-28 19 -85 13 -105 -11 -37 -44 -29 -150
13 -180 28 -20 76 -19 99 2 17 15 18 15 18 0 0 -10 8 -17 20 -17 19 0 20 7 20
150 0 143 -1 150 -20 150 -18 0 -20 -7 -20 -55z m-18 -82 c38 -35 11 -133 -37
-133 -28 0 -55 38 -55 77 0 63 50 94 92 56z"/>
<path d="M12830 3966 c0 -139 1 -146 20 -146 18 0 20 7 20 55 l0 55 34 0 c32
0 37 -5 63 -52 22 -41 34 -54 55 -56 l27 -3 -30 55 -31 56 26 31 c32 38 33 79
3 115 -21 24 -32 28 -105 32 l-82 5 0 -147z m148 92 c7 -7 12 -24 12 -38 0
-38 -18 -50 -72 -50 l-48 0 0 50 0 50 48 0 c26 0 53 -5 60 -12z"/>
<path d="M2890 3920 c0 -143 1 -150 20 -150 11 0 20 7 20 15 0 8 3 15 6 15 3
0 12 -7 20 -15 16 -15 60 -20 89 -9 25 10 45 58 45 109 0 38 -5 52 -29 76 -35
34 -68 37 -105 8 l-26 -20 0 60 c0 54 -2 61 -20 61 -19 0 -20 -7 -20 -150z
m144 8 c28 -39 13 -111 -25 -123 -59 -19 -99 78 -56 133 16 20 64 14 81 -10z"/>
<path d="M3896 4048 c-9 -12 -16 -30 -16 -39 0 -9 -9 -19 -20 -22 -11 -3 -20
-10 -20 -17 0 -7 9 -14 20 -17 18 -5 20 -14 20 -94 0 -82 2 -89 20 -89 19 0
20 7 20 90 0 89 0 90 25 90 18 0 25 5 25 20 0 15 -7 20 -25 20 -14 0 -25 4
-25 9 0 23 14 41 31 41 10 0 19 7 19 15 0 24 -56 19 -74 -7z"/>
<path d="M2000 3915 c0 -138 1 -145 20 -145 19 0 20 7 20 100 0 55 4 100 8
100 4 0 39 -45 77 -100 99 -141 105 -138 105 45 0 138 -1 145 -20 145 -19 0
-20 -7 -20 -107 l0 -107 -76 107 c-51 73 -82 107 -95 107 -18 0 -19 -9 -19
-145z"/>
<path d="M4166 4039 c-37 -29 -56 -71 -56 -124 0 -94 47 -147 130 -147 77 0
120 42 120 117 l0 35 -55 0 c-48 0 -55 -2 -55 -20 0 -16 7 -20 35 -20 39 0 44
-13 20 -47 -20 -29 -58 -36 -99 -19 -28 12 -37 23 -46 57 -6 23 -9 56 -6 74
14 74 101 103 150 50 24 -26 56 -34 56 -14 0 6 -15 26 -34 45 -30 30 -41 34
-84 34 -35 0 -57 -6 -76 -21z"/>
<path d="M4420 3916 c0 -139 1 -146 20 -146 17 0 20 7 20 50 l0 50 46 0 c76 0
113 30 114 92 0 24 -8 46 -23 64 -21 24 -32 27 -100 32 l-77 5 0 -147z m146
79 c25 -39 12 -72 -35 -86 -60 -18 -71 -9 -71 56 l0 55 45 0 c36 0 47 -5 61
-25z"/>
<path d="M4674 4045 c-11 -29 1 -209 16 -232 20 -31 52 -46 100 -46 92 0 115
36 115 182 0 102 -1 106 -22 109 -23 3 -23 2 -23 -107 0 -106 -1 -110 -26
-130 -15 -12 -34 -21 -44 -21 -10 0 -29 9 -44 21 -25 20 -26 24 -26 130 0 103
-1 109 -20 109 -11 0 -23 -7 -26 -15z"/>
<path d="M13109 4011 c-23 -24 -29 -38 -29 -75 0 -82 31 -116 106 -116 25 0
43 8 62 27 33 34 15 43 -34 17 -32 -17 -37 -17 -62 -4 -15 9 -28 26 -30 38 -3
21 0 22 74 22 l77 0 -6 38 c-13 80 -101 109 -158 53z m108 -30 c21 -27 15 -31
-42 -31 -57 0 -64 5 -42 32 23 30 60 30 84 -1z"/>
<path d="M13336 4017 c-44 -44 -28 -80 44 -101 50 -15 74 -41 50 -56 -22 -14
-56 -12 -70 5 -16 19 -50 20 -50 1 0 -24 41 -46 85 -46 110 0 117 106 8 126
-44 8 -59 27 -38 48 20 20 36 20 61 1 21 -16 54 -20 54 -7 0 19 -41 44 -78 49
-34 5 -45 1 -66 -20z"/>
<path d="M13549 4011 c-23 -24 -29 -38 -29 -75 0 -82 31 -116 106 -116 25 0
43 8 62 27 23 24 25 28 10 31 -10 2 -28 -4 -40 -12 -30 -21 -54 -20 -78 4 -39
39 -27 50 56 50 l77 0 -6 38 c-13 80 -101 109 -158 53z m108 -30 c21 -27 15
-31 -42 -31 -57 0 -64 5 -42 32 23 30 60 30 84 -1z"/>
<path d="M13760 3930 c0 -103 1 -110 20 -110 18 0 20 7 20 74 0 82 13 106 56
106 17 0 24 5 24 20 0 24 -26 26 -58 4 -20 -14 -22 -14 -22 0 0 9 -9 16 -20
16 -19 0 -20 -7 -20 -110z"/>
<path d="M13900 4033 c0 -4 16 -53 36 -110 32 -89 40 -103 59 -103 20 0 28 14
59 98 41 112 43 125 19 120 -12 -2 -26 -28 -44 -81 -15 -43 -29 -80 -32 -83
-3 -3 -17 33 -31 80 -22 70 -30 86 -46 86 -11 0 -20 -3 -20 -7z"/>
<path d="M14157 4020 c-52 -41 -55 -149 -4 -185 44 -31 147 -10 147 31 0 19
-12 18 -49 -3 -28 -16 -33 -17 -58 -3 -16 9 -29 26 -31 38 -3 21 0 22 72 22
85 0 87 3 61 65 -22 55 -91 72 -138 35z m101 -54 c3 -13 -6 -16 -48 -16 -43 0
-51 3 -48 17 5 28 49 45 73 29 11 -7 21 -21 23 -30z"/>
<path d="M2294 3975 c-12 -32 4 -166 22 -186 21 -23 71 -25 102 -3 20 14 22
14 22 0 0 -9 9 -16 20 -16 20 0 21 5 18 107 -3 93 -5 108 -20 111 -16 3 -18
-5 -18 -62 0 -35 -4 -76 -9 -89 -12 -30 -43 -42 -70 -27 -17 9 -21 22 -23 93
-3 69 -6 82 -21 85 -9 2 -20 -4 -23 -13z"/>
<path d="M2537 3983 c-4 -3 -7 -53 -7 -110 0 -96 1 -103 20 -103 18 0 20 7 20
65 0 87 14 117 54 113 l31 -3 3 -87 c3 -80 5 -88 22 -88 18 0 20 7 20 64 0 36
4 77 10 91 8 22 15 26 42 23 l33 -3 3 -87 c3 -80 5 -88 22 -88 18 0 20 7 20
94 0 87 -2 96 -22 110 -30 21 -61 20 -88 -2 -23 -18 -24 -18 -42 0 -22 22 -61
23 -82 3 -8 -8 -17 -15 -20 -15 -3 0 -6 7 -6 15 0 15 -21 21 -33 8z"/>
<path d="M3159 3961 c-23 -24 -29 -38 -29 -75 0 -82 31 -116 106 -116 25 0 43
8 62 27 23 24 25 28 10 31 -10 2 -28 -4 -40 -12 -30 -21 -54 -20 -78 4 -39 39
-27 50 56 50 l77 0 -6 38 c-13 80 -101 109 -158 53z m108 -30 c21 -27 15 -31
-42 -31 -57 0 -64 5 -42 32 23 30 60 30 84 -1z"/>
<path d="M3370 3880 c0 -103 1 -110 20 -110 18 0 20 7 20 74 0 82 13 106 56
106 17 0 24 5 24 20 0 25 -36 27 -62 3 -17 -15 -18 -15 -18 0 0 10 -8 17 -20
17 -19 0 -20 -7 -20 -110z"/>
<path d="M3674 3980 c-35 -14 -54 -50 -54 -103 0 -40 5 -53 29 -78 49 -48 125
-38 156 21 50 98 -33 200 -131 160z m86 -45 c33 -40 4 -135 -42 -135 -50 0
-78 91 -41 132 20 22 66 24 83 3z"/>
<path d="M4988 3970 c-52 -40 -28 -91 50 -106 41 -8 59 -29 42 -49 -7 -8 -23
-15 -36 -15 -12 0 -29 7 -38 15 -19 19 -46 19 -46 1 0 -44 113 -63 150 -26 42
42 18 88 -55 105 -54 12 -70 36 -35 55 15 8 28 7 55 -6 45 -21 62 -15 38 14
-27 34 -90 40 -125 12z"/>
<path d="M10565 3890 l-49 -50 104 0 104 0 -49 50 c-27 28 -52 50 -55 50 -3 0
-28 -22 -55 -50z"/>
<path d="M7178 3907 c-39 -32 -37 -55 2 -27 l30 21 0 -110 c0 -92 3 -111 15
-111 13 0 15 21 15 125 0 113 -2 125 -17 125 -10 -1 -30 -11 -45 -23z"/>
<path d="M10571 3743 l50 -47 47 47 47 47 -97 0 -97 0 50 -47z"/>
<path d="M12855 3145 c-30 -30 -33 -77 -6 -104 11 -11 39 -25 63 -31 64 -16
66 -17 78 -39 8 -17 6 -25 -11 -42 -26 -26 -87 -21 -108 11 -7 11 -22 20 -32
20 -22 0 -23 -1 -8 -33 15 -34 50 -50 104 -49 54 0 92 22 101 57 15 59 -18 95
-98 110 -67 13 -86 65 -32 86 28 10 72 -4 80 -26 9 -22 44 -19 44 4 0 58 -127
84 -175 36z"/>
<path d="M13116 3149 c-20 -16 -26 -29 -26 -59 0 -46 14 -59 94 -85 52 -17 61
-24 64 -46 2 -19 -3 -28 -23 -37 -39 -18 -64 -15 -89 13 -26 28 -56 33 -56 10
0 -25 46 -65 77 -67 80 -4 116 12 135 61 12 34 -7 77 -40 89 -15 6 -47 16 -72
24 -33 9 -46 19 -48 34 -7 47 76 66 109 26 20 -25 49 -29 49 -7 0 9 -11 27
-25 40 -32 33 -110 35 -149 4z"/>
<path d="M13350 3026 l0 -146 66 0 c117 0 168 44 168 146 1 93 -46 135 -160
142 l-74 5 0 -147z m161 75 c23 -23 29 -38 29 -71 0 -76 -31 -109 -102 -110
l-48 0 0 105 0 105 46 0 c37 0 51 -5 75 -29z"/>
<path d="M16875 3107 c-56 -22 -84 -49 -111 -103 -31 -63 -30 -117 3 -181 46
-88 172 -130 259 -85 79 41 114 97 114 183 0 138 -139 235 -265 186z"/>
<path d="M3057 3073 c-15 -14 -7 -43 12 -43 23 0 34 23 18 39 -13 13 -21 14
-30 4z"/>
<path d="M2000 2916 l0 -146 68 0 c83 0 130 21 154 70 36 71 13 166 -46 197
-17 9 -64 18 -103 21 l-73 5 0 -147z m143 93 c55 -25 68 -129 22 -174 -19 -20
-34 -25 -75 -25 l-50 0 0 98 c0 54 3 102 7 105 10 11 70 8 96 -4z"/>
<path d="M2920 3016 c0 -15 -7 -26 -20 -29 -11 -3 -20 -12 -20 -21 0 -9 8 -16
20 -16 18 0 20 -7 20 -80 0 -86 9 -100 64 -100 34 0 34 26 1 34 -24 6 -25 10
-25 75 0 65 2 70 23 73 12 2 22 10 22 18 0 8 -10 16 -22 18 -17 3 -23 10 -23
28 0 17 -5 24 -20 24 -14 0 -20 -7 -20 -24z"/>
<path d="M2290 2902 c0 -107 13 -132 67 -132 20 0 45 7 55 17 17 15 18 15 18
0 0 -10 8 -17 20 -17 19 0 20 7 20 110 0 103 -1 110 -20 110 -18 0 -20 -7 -20
-75 0 -62 -4 -79 -20 -95 -49 -49 -80 -14 -80 91 0 72 -2 79 -20 79 -18 0 -20
-7 -20 -88z"/>
<path d="M2530 2880 c0 -103 1 -110 20 -110 18 0 20 7 20 74 0 82 13 106 56
106 17 0 24 5 24 20 0 24 -26 26 -58 4 -20 -14 -22 -14 -22 0 0 9 -9 16 -20
16 -19 0 -20 -7 -20 -110z"/>
<path d="M2713 2975 c-36 -15 -45 -45 -14 -45 11 0 22 4 25 9 12 19 48 19 67
0 29 -29 24 -36 -33 -43 -62 -8 -88 -28 -88 -66 0 -53 68 -79 118 -44 20 14
22 14 22 0 0 -9 9 -16 20 -16 18 0 20 7 20 85 0 78 -2 88 -25 110 -27 28 -64
31 -112 10z m90 -112 c10 -17 -14 -53 -38 -59 -47 -12 -77 38 -32 56 28 11 64
12 70 3z"/>
<path d="M3050 2880 c0 -103 1 -110 20 -110 19 0 20 7 20 110 0 103 -1 110
-20 110 -19 0 -20 -7 -20 -110z"/>
<path d="M3193 2980 c-58 -24 -70 -143 -18 -187 64 -56 165 -9 165 77 0 93
-66 142 -147 110z m85 -43 c54 -65 -13 -177 -71 -118 -25 25 -29 89 -8 115 16
19 64 21 79 3z"/>
<path d="M3390 2880 c0 -103 1 -110 20 -110 18 0 20 7 20 78 0 86 8 102 52
102 37 0 48 -24 48 -109 0 -64 2 -71 20 -71 18 0 20 7 20 85 0 78 -2 88 -25
110 -28 29 -61 32 -93 9 -20 -14 -22 -14 -22 0 0 9 -9 16 -20 16 -19 0 -20 -7
-20 -110z"/>
<path d="M8060 2780 c0 -127 2 -150 15 -150 13 0 15 23 15 150 0 127 -2 150
-15 150 -13 0 -15 -23 -15 -150z"/>
<path d="M7160 2775 c0 -122 2 -145 15 -145 12 0 15 14 15 65 l0 65 80 0 80 0
0 -65 c0 -51 3 -65 15 -65 13 0 15 23 15 145 0 122 -2 145 -15 145 -12 0 -15
-14 -15 -65 l0 -65 -80 0 -80 0 0 65 c0 51 -3 65 -15 65 -13 0 -15 -23 -15
-145z"/>
<path d="M10565 2860 l-49 -50 104 0 104 0 -49 50 c-27 28 -52 50 -55 50 -3 0
-28 -22 -55 -50z"/>
<path d="M7493 2835 c-17 -7 -36 -22 -42 -34 -14 -26 -14 -93 0 -124 22 -49
100 -62 144 -24 52 44 40 165 -17 182 -48 14 -54 14 -85 0z m83 -36 c22 -25
25 -99 4 -124 -17 -20 -69 -19 -92 2 -26 23 -25 96 2 123 26 26 62 25 86 -1z"/>
<path d="M7980 2843 c-8 -3 -21 -12 -27 -21 -12 -14 -13 -14 -13 1 0 9 -7 17
-15 17 -12 0 -15 -18 -15 -105 0 -87 3 -105 15 -105 12 0 15 15 15 71 0 83 10
105 50 114 16 4 30 13 30 21 0 14 -13 17 -40 7z"/>
<path d="M7680 2755 c0 -72 3 -88 20 -105 24 -24 67 -26 98 -4 20 14 22 14 22
0 0 -9 7 -16 15 -16 12 0 15 18 15 105 0 87 -3 105 -15 105 -12 0 -15 -14 -15
-68 0 -80 -17 -112 -59 -112 -43 0 -51 17 -51 102 0 63 -3 78 -15 78 -12 0
-15 -16 -15 -85z"/>
<path d="M8140 2833 c0 -5 16 -51 35 -103 20 -52 34 -104 31 -116 -3 -11 -18
-26 -33 -34 -17 -7 -23 -14 -15 -17 29 -11 59 7 75 44 31 69 86 227 82 231
-14 14 -34 -15 -55 -82 -13 -43 -27 -79 -30 -81 -3 -2 -19 34 -34 81 -17 54
-32 84 -42 84 -8 0 -14 -3 -14 -7z"/>
<path d="M10562 2715 c26 -25 51 -45 55 -45 5 0 31 20 58 45 l50 44 -105 0
-105 1 47 -45z"/>
<path d="M16864 2560 l-81 -80 -529 0 c-578 0 -558 2 -583 -58 -9 -20 -11
-105 -9 -290 l3 -262 28 -27 27 -28 1226 0 1226 0 29 33 29 32 0 271 0 271
-29 29 -29 29 -529 0 -528 0 -80 80 c-44 44 -82 80 -85 80 -3 0 -42 -36 -86
-80z m396 -272 c0 -7 13 -20 29 -30 16 -9 34 -26 40 -37 10 -18 9 -21 -6 -21
-10 0 -24 9 -31 20 -17 28 -32 16 -32 -24 0 -27 6 -35 32 -47 40 -18 53 -39
44 -73 -5 -19 -18 -32 -41 -42 -19 -8 -35 -21 -35 -29 0 -8 -4 -15 -10 -15 -5
0 -10 7 -10 15 0 9 -8 18 -17 22 -29 10 -53 35 -53 55 0 24 17 23 30 -2 18
-34 40 -25 40 18 0 32 -4 39 -30 50 -17 8 -33 24 -36 38 -7 29 16 70 46 79 11
3 20 13 20 21 0 8 5 14 10 14 6 0 10 -6 10 -12z m-1246 -29 c45 -35 36 -77
-30 -148 l-56 -61 61 0 c48 0 61 -3 61 -15 0 -12 -16 -15 -85 -15 -54 0 -85 4
-85 11 0 6 24 36 54 67 62 67 79 96 71 122 -12 37 -74 34 -89 -5 -7 -18 -36
-20 -36 -2 0 29 47 66 86 67 12 0 33 -9 48 -21z m205 5 c98 -69 37 -291 -66
-242 -44 21 -65 72 -59 143 4 51 9 64 35 87 36 32 57 35 90 12z m286 -26 c25
-28 26 -33 12 -36 -10 -2 -26 7 -36 19 -21 26 -79 32 -105 10 -43 -36 -40
-148 6 -172 34 -18 81 -13 100 12 28 34 23 49 -17 49 -24 0 -35 5 -35 15 0 11
12 15 50 15 l50 0 0 -34 c0 -109 -156 -140 -203 -40 -66 138 79 271 178 162z
m1007 31 c69 -37 61 -219 -11 -249 -55 -22 -104 18 -116 95 -17 106 54 193
127 154z m178 4 c0 -5 -18 -75 -38 -158 -28 -107 -43 -151 -54 -153 -13 -3
-11 16 14 120 44 186 47 198 63 198 8 0 15 -3 15 -7z m60 -40 c0 -37 3 -44 12
-35 17 17 68 15 90 -5 24 -22 27 -173 3 -173 -12 0 -15 14 -15 68 0 72 -10 92
-45 92 -35 0 -45 -20 -45 -92 0 -54 -3 -68 -15 -68 -13 0 -15 21 -15 130 0
109 2 130 15 130 11 0 15 -12 15 -47z m-1007 5 l21 -28 -21 -28 -21 -28 24
-21 c31 -27 30 -57 -1 -88 -21 -22 -33 -25 -95 -25 l-70 0 0 125 0 126 71 -3
c65 -3 74 -6 92 -30z m1207 -45 c1 -17 1 -17 11 0 12 21 59 23 59 2 0 -8 -9
-15 -19 -15 -37 0 -51 -27 -51 -96 0 -50 -3 -64 -15 -64 -12 0 -15 17 -15 95
0 78 3 95 15 95 8 0 15 -8 15 -17z m-930 -68 c0 -12 -13 -15 -60 -15 -55 0
-70 6 -53 23 3 4 30 7 60 7 40 0 53 -4 53 -15z"/>
<path d="M17218 2226 c-22 -21 -22 -30 -3 -46 21 -17 27 -9 23 31 -3 31 -4 32
-20 15z"/>
<path d="M17260 2095 c0 -36 15 -46 38 -23 16 16 15 23 -4 42 -24 25 -34 19
-34 -19z"/>
<path d="M16146 2228 c-34 -55 -26 -157 14 -178 44 -24 74 18 73 102 -1 83
-53 128 -87 76z"/>
<path d="M17439 2229 c-18 -18 -21 -30 -17 -91 3 -54 8 -73 23 -84 24 -18 28
-18 56 5 20 16 24 28 24 84 0 50 -4 70 -19 86 -24 27 -40 27 -67 0z"/>
<path d="M16620 2199 l0 -42 42 7 c53 9 58 12 58 41 0 26 -17 35 -66 35 -33 0
-34 -1 -34 -41z"/>
<path d="M16620 2091 l0 -41 44 0 c49 0 69 17 64 52 -3 20 -9 23 -55 26 l-53
3 0 -40z"/>
<path d="M14693 1954 c-4 -11 10 -31 40 -62 l47 -46 45 44 c25 24 45 50 45 56
0 28 -24 24 -57 -7 l-35 -34 -27 33 c-30 35 -48 40 -58 16z"/>
</g>
</svg>
