<svg width="116" height="45" xmlns="http://www.w3.org/2000/svg" xmlns:xlink="http://www.w3.org/1999/xlink" overflow="hidden"><defs><clipPath id="clip0"><rect x="482" y="176" width="116" height="45"/></clipPath><clipPath id="clip1"><rect x="483" y="177" width="115" height="44"/></clipPath><clipPath id="clip2"><rect x="483" y="177" width="115" height="44"/></clipPath><clipPath id="clip3"><rect x="483" y="177" width="115" height="44"/></clipPath></defs><g clip-path="url(#clip0)" transform="translate(-482 -176)"><g clip-path="url(#clip1)"><g clip-path="url(#clip2)"><g clip-path="url(#clip3)"><path d="M29.92 21.7599C29.92 20.9956 29.7898 20.2615 29.5539 19.5761 29.5471 19.5568 29.5409 19.5372 29.534 19.5175 29.5099 19.4503 29.4842 19.3838 29.4585 19.3174 29.4418 19.2745 29.4253 19.2317 29.4078 19.1891 29.3899 19.1463 29.3714 19.1043 29.3528 19.062 29.3244 18.9967 29.2952 18.9316 29.2646 18.8668 29.2558 18.8485 29.2463 18.8302 29.2371 18.8119 28.9196 18.1604 28.4926 17.5491 27.952 17.0085 27.9242 16.9807 27.8948 16.9555 27.8656 16.9305 26.6559 15.7615 25.011 15.0401 23.2 15.0401 22.8135 15.0401 22.4312 15.073 22.0549 15.1378 20.4871 12.3534 17.4969 10.56 14.24 10.56 9.29966 10.56 5.28 14.5795 5.28 19.52 5.28 24.4605 9.29949 28.48 14.24 28.48L15.4806 28.48 13.1467 34.6882C13.1007 34.8029 13.1148 34.9335 13.1842 35.0361 13.2539 35.1389 13.3693 35.2002 13.4934 35.2002L14.9866 35.2002C15.0999 35.2002 15.2076 35.1488 15.2784 35.0601L20.2435 28.48 22.4534 28.48C23.2779 28.48 23.9467 27.8115 23.9467 26.9868 23.9467 26.1619 23.2781 25.4934 22.4534 25.4934L20.2435 25.4934 15.2784 18.9135C15.2076 18.8251 15.1001 18.7732 14.9866 18.7732L13.4934 18.7732C13.3695 18.7732 13.2539 18.835 13.1842 18.9372 13.1148 19.04 13.1007 19.1703 13.1467 19.2854L15.4806 25.4934 14.24 25.4934C10.9463 25.4934 8.26672 22.8136 8.26672 19.52 8.26672 16.2263 10.9463 13.5467 14.24 13.5467 16.7228 13.5467 18.973 15.11 19.8392 17.4363 19.98 17.8145 20.2682 18.1196 20.6374 18.2822 21.0068 18.4448 21.4264 18.451 21.7997 18.2992 22.246 18.1185 22.717 18.0266 23.2 18.0266 24.4756 18.0266 25.6029 18.6706 26.2768 19.6497 26.2831 19.6588 26.2904 19.6676 26.2965 19.6768 26.3463 19.7504 26.3908 19.8276 26.4354 19.9047 26.4524 19.9348 26.4722 19.9644 26.4885 19.995 26.5214 20.0561 26.5498 20.12 26.5793 20.1832 26.6024 20.233 26.6279 20.2822 26.6487 20.3329 26.6677 20.3785 26.683 20.4262 26.7001 20.473 26.726 20.5434 26.7529 20.6136 26.774 20.6855 26.7824 20.7129 26.7879 20.7409 26.7956 20.7687 26.8206 20.8606 26.8451 20.9528 26.8631 21.0457 26.8638 21.0484 26.8638 21.0512 26.8645 21.0538 27.089 22.2288 26.7478 23.4921 25.84 24.3999 25.2567 24.9828 25.2567 25.9287 25.84 26.5116 26.1318 26.8032 26.5137 26.9491 26.8958 26.9491 27.2784 26.9491 27.6603 26.8032 27.9521 26.5116 29.2322 25.2315 29.8852 23.5592 29.9142 21.8777 29.917 21.8388 29.92 21.7997 29.92 21.7599ZM37.9958 26.3407 41.697 18.0835C41.8966 17.6422 42.2523 17.3717 42.7508 17.3717L42.8359 17.3717C43.3345 17.3717 43.676 17.6422 43.8754 18.0835L47.5767 26.3407C47.6478 26.4686 47.6765 26.5968 47.6765 26.7108 47.6765 27.1807 47.3206 27.5505 46.8505 27.5505 46.4378 27.5505 46.1534 27.3085 45.9965 26.9387L45.185 25.0733 40.3448 25.0733 39.5048 26.9952C39.3622 27.3515 39.0636 27.5505 38.6934 27.5505 38.2376 27.5505 37.8817 27.1946 37.8817 26.7392 37.8817 26.6112 37.9245 26.4829 37.9958 26.3407ZM44.5157 23.5215 42.7647 19.4927 41.0135 23.5215 44.5157 23.5215ZM52.2477 27.6503C50.0699 27.6503 48.39 26.0702 48.39 23.7496L48.39 23.7211C48.39 21.5714 49.9131 19.8062 52.0629 19.8062 54.4548 19.8062 55.6362 21.771 55.6362 23.5078 55.6362 23.9916 55.2659 24.3332 54.8245 24.3332L50.1127 24.3332C50.2976 25.5577 51.1658 26.2409 52.2764 26.2409 53.0024 26.2409 53.5719 25.9848 54.0561 25.5858 54.1839 25.4864 54.2981 25.4294 54.4973 25.4294 54.8815 25.4294 55.1813 25.7282 55.1813 26.127 55.1813 26.3403 55.0811 26.5257 54.9532 26.6536 54.2692 27.2659 53.4153 27.6503 52.2477 27.6503ZM53.9561 23.1942C53.8424 22.084 53.1874 21.2154 52.0485 21.2154 50.9949 21.2154 50.2547 22.0269 50.098 23.1942L53.9561 23.1942ZM57.0469 20.7455C57.0469 20.2616 57.4165 19.8771 57.9008 19.8771 58.3852 19.8771 58.7696 20.2615 58.7696 20.7455L58.7696 21.5144C59.1684 20.5749 59.9088 19.8632 60.663 19.8632 61.2038 19.8632 61.5168 20.2191 61.5168 20.7171 61.5168 21.1732 61.2179 21.472 60.834 21.5429 59.6098 21.7562 58.7696 22.6959 58.7696 24.4754L58.7696 26.6964C58.7696 27.166 58.3854 27.5503 57.9008 27.5503 57.4314 27.5503 57.0469 27.1806 57.0469 26.6964L57.0469 20.7455ZM61.9027 23.7635 61.9027 23.7352C61.9027 21.5857 63.6108 19.806 65.9168 19.806 68.2227 19.806 69.9174 21.557 69.9174 23.7067L69.9174 23.7352C69.9174 25.8706 68.2092 27.6501 65.8881 27.6501 63.596 27.6501 61.9027 25.8993 61.9027 23.7635ZM68.1945 23.7635 68.1945 23.7352C68.1945 22.4111 67.2408 21.315 65.8882 21.315 64.5075 21.315 63.6247 22.3969 63.6247 23.7067L63.6247 23.7352C63.6247 25.0448 64.5786 26.1411 65.9168 26.1411 67.3123 26.1411 68.1945 25.0596 68.1945 23.7635ZM71.072 22.5252 71.072 22.4967C71.072 19.6634 73.1933 17.3432 76.2113 17.3432 77.7489 17.3432 78.7595 17.7991 79.6279 18.4679 79.8128 18.6104 79.9702 18.8522 79.9702 19.1653 79.9702 19.6495 79.5854 20.0193 79.1016 20.0193 78.8587 20.0193 78.6887 19.9338 78.5747 19.8486 77.8911 19.2936 77.1507 18.9517 76.1967 18.9517 74.3037 18.9517 72.9084 20.5181 72.9084 22.4682L72.9084 22.4968C72.9084 24.4471 74.2891 26.0274 76.1967 26.0274 77.2508 26.0274 77.9622 25.686 78.6887 25.0735 78.8165 24.9598 79.0015 24.8743 79.215 24.8743 79.6564 24.8743 80.0408 25.2444 80.0408 25.6861 80.0408 25.9565 79.913 26.17 79.756 26.3125 78.8165 27.1378 77.7489 27.6505 76.1399 27.6505 73.2357 27.6503 71.072 25.3868 71.072 22.5252ZM81.5654 17.87C81.5654 17.4001 81.9361 17.016 82.4197 17.016 82.9037 17.016 83.2883 17.4001 83.2883 17.87L83.2883 26.6966C83.2883 27.1807 82.9041 27.5505 82.4197 27.5505 81.95 27.5505 81.5654 27.1807 81.5654 26.6966L81.5654 17.87ZM84.769 23.7635 84.769 23.7352C84.769 21.5857 86.4772 19.806 88.7839 19.806 91.0899 19.806 92.7842 21.557 92.7842 23.7067L92.7842 23.7352C92.7842 25.8706 91.0756 27.6501 88.7552 27.6501 86.4635 27.6501 84.769 25.8993 84.769 23.7635ZM91.062 23.7635 91.062 23.7352C91.062 22.4111 90.1081 21.315 88.7557 21.315 87.3741 21.315 86.4922 22.3969 86.4922 23.7067L86.4922 23.7352C86.4922 25.0448 87.446 26.1411 88.7843 26.1411 90.1789 26.1411 91.062 25.0596 91.062 23.7635ZM100.858 26.6966C100.858 27.1661 100.473 27.5505 99.9893 27.5505 99.5194 27.5505 99.1211 27.1807 99.1211 26.6966L99.1211 26.3125C98.6371 27.0241 97.9391 27.6362 96.7718 27.6362 95.0775 27.6362 94.0952 26.4975 94.0952 24.7461L94.0952 20.7455C94.0952 20.2616 94.4794 19.8771 94.9495 19.8771 95.4332 19.8771 95.8181 20.2615 95.8181 20.7455L95.8181 24.2334C95.8181 25.4007 96.4019 26.0557 97.4266 26.0557 98.4229 26.0557 99.1213 25.3723 99.1213 24.2049L99.1213 20.7455C99.1213 20.2616 99.5056 19.8771 99.9895 19.8771 100.46 19.8771 100.858 20.2615 100.858 20.7455L100.858 26.6966 100.858 26.6966ZM110.042 26.6966C110.042 27.1807 109.657 27.5505 109.187 27.5505 108.703 27.5505 108.319 27.1807 108.319 26.6966L108.319 26.227C107.764 27.0097 106.981 27.636 105.757 27.636 103.991 27.636 102.269 26.227 102.269 23.7354L102.269 23.7068C102.269 21.2154 103.963 19.8062 105.757 19.8062 106.995 19.8062 107.778 20.4185 108.319 21.1302L108.319 17.87C108.319 17.3862 108.703 17.016 109.173 17.016 109.657 17.016 110.042 17.3862 110.042 17.87L110.042 26.6966 110.042 26.6966ZM104.005 23.7068 104.005 23.7354C104.005 25.1875 105.001 26.1413 106.17 26.1413 107.322 26.1413 108.347 25.1733 108.347 23.7354L108.347 23.7068C108.347 22.2548 107.322 21.3009 106.17 21.3009 104.988 21.3009 104.005 22.2121 104.005 23.7068Z" fill="#4285F4" fill-rule="nonzero" fill-opacity="1" transform="matrix(1.02095 0 0 1 481.631 176.12)"/></g></g></g></g></svg>