<svg width="84" height="26" xmlns="http://www.w3.org/2000/svg" xmlns:xlink="http://www.w3.org/1999/xlink" overflow="hidden"><defs><clipPath id="clip0"><rect x="496" y="338" width="84" height="26"/></clipPath><clipPath id="clip1"><rect x="497" y="339" width="83" height="24"/></clipPath><clipPath id="clip2"><rect x="497" y="339" width="83" height="24"/></clipPath><clipPath id="clip3"><rect x="497" y="339" width="83" height="24"/></clipPath></defs><g clip-path="url(#clip0)" transform="translate(-496 -338)"><g clip-path="url(#clip1)"><g clip-path="url(#clip2)"><g clip-path="url(#clip3)"><path d="M2.69703 2.69703 2.69703 21.1812M18.1667 15.4692C18.1667 12.3145 15.6093 9.75712 12.4546 9.75712 9.29997 9.75712 6.74259 12.3145 6.74259 15.4692 6.74259 18.6239 9.29997 21.1812 12.4546 21.1812 15.6093 21.1812 18.1667 18.6239 18.1667 15.4692L18.1667 21.1812M22.2122 2.69703 22.2122 21.1812" stroke="#666666" stroke-width="2.69703" stroke-linecap="round" stroke-linejoin="round" stroke-miterlimit="4" stroke-opacity="1" fill="none" fill-rule="nonzero" transform="matrix(1.00586 0 0 1 497 339.061)"/><path d="M33.6363 15.4692C33.6363 18.6239 31.079 21.1812 27.9243 21.1812 24.7696 21.1812 22.2122 18.6239 22.2122 15.4692 22.2122 12.3145 24.7696 9.75714 27.9243 9.75714 31.079 9.75714 33.6363 12.3145 33.6363 15.4692Z" stroke="#666666" stroke-width="2.69703" stroke-linecap="round" stroke-linejoin="round" stroke-miterlimit="4" stroke-opacity="1" fill="none" fill-rule="nonzero" transform="matrix(1.00586 0 0 1 497 339.061)"/><path d="M37.6819 21.1812 37.6819 13.39C37.6819 11.3836 39.3085 9.75712 41.3148 9.75712 43.3211 9.75712 44.9477 11.3836 44.9477 13.39L44.9477 21.1812" stroke="#666666" stroke-width="2.69703" stroke-linecap="round" stroke-linejoin="round" stroke-miterlimit="4" stroke-opacity="1" fill="none" fill-rule="nonzero" transform="matrix(1.00586 0 0 1 497 339.061)"/><path d="M44.9477 21.1812 44.9477 13.39C44.9477 11.3836 46.5743 9.75712 48.5806 9.75712 50.5869 9.75712 52.2135 11.3836 52.2135 13.39L52.2135 21.1812M56.2591 2.69703 56.2591 21.1812M60.3046 21.1812 60.3046 21.1839" stroke="#666666" stroke-width="2.69703" stroke-linecap="round" stroke-linejoin="round" stroke-miterlimit="4" stroke-opacity="1" fill="none" fill-rule="nonzero" transform="matrix(1.00586 0 0 1 497 339.061)"/><path d="M75.7743 15.4692C75.7743 18.6239 73.2169 21.1812 70.0622 21.1812 66.9075 21.1812 64.3502 18.6239 64.3502 15.4692 64.3502 12.3145 66.9075 9.75714 70.0622 9.75714 73.2169 9.75714 75.7743 12.3145 75.7743 15.4692Z" stroke="#666666" stroke-width="2.69703" stroke-linecap="round" stroke-linejoin="round" stroke-miterlimit="4" stroke-opacity="1" fill="none" fill-rule="nonzero" transform="matrix(1.00586 0 0 1 497 339.061)"/><path d="M75.7743 15.4692 75.7743 21.1812M79.8198 9.75712 79.8198 21.1812M79.8198 6.32991 79.8198 6.33261" stroke="#666666" stroke-width="2.69703" stroke-linecap="round" stroke-linejoin="round" stroke-miterlimit="4" stroke-opacity="1" fill="none" fill-rule="nonzero" transform="matrix(1.00586 0 0 1 497 339.061)"/></g></g></g></g></svg>