<svg width="138" height="30"  viewBox="0 0 138 30" fill="none" xmlns="http://www.w3.org/2000/svg">
                            <path d="M61.8795 20.9508C61.8795 21.207 61.5209 21.5143 61.1111 21.5143C60.6501 21.5143 60.3428 21.2582 60.3428 20.9508V13.3183C60.3428 13.011 60.6501 12.8061 61.1111 12.8061C61.4697 12.8061 61.8283 13.011 61.8283 13.3183V14.0867C62.1869 13.3695 63.0577 12.7036 64.2871 12.7036C66.0287 12.7036 67.5143 14.2916 67.5143 16.2381V21.0021C67.5143 21.3606 67.1045 21.5655 66.7459 21.5655C66.3873 21.5655 65.9775 21.3606 65.9775 21.0021V16.2381C65.9775 15.1624 65.0042 14.0867 63.8773 14.0867C62.904 14.0867 61.8795 14.9063 61.8795 16.2381V20.9508Z" fill="#151928" />
                            <path d="M76.9908 16.0333C76.9908 17.5189 76.1712 17.5701 75.3516 17.5701H71.3048V18.1336C71.3048 19.5166 72.3805 20.3875 73.9173 20.3875C75.3004 20.3875 75.7102 19.6703 76.1712 19.6703C76.5298 19.6703 76.7859 20.0801 76.7859 20.3875C76.7859 20.8485 75.6589 21.7193 73.8661 21.7193C71.4585 21.7193 69.7681 20.285 69.7681 18.1336V16.187C69.7681 14.2917 71.4073 12.7037 73.4563 12.7037C75.3516 12.6525 76.9908 14.0868 76.9908 16.0333ZM74.7369 16.5456C75.4028 16.5456 75.5565 16.4431 75.5565 15.9309C75.5565 14.8552 74.6857 13.8307 73.4563 13.8307C72.2781 13.8307 71.356 14.7015 71.356 15.8284V16.4944H74.7369V16.5456Z" fill="#151928" />
                            <path d="M80.6789 13.3183V14.0867C81.0887 13.3695 81.9596 12.7036 83.1377 12.7036C84.9818 12.7036 86.4673 14.2916 86.4673 16.2381V18.1335C86.4673 19.9776 84.9306 21.7192 83.2402 21.7192C82.1132 21.7192 81.14 21.0533 80.7814 20.2849V25.2537C80.7814 25.5098 80.4228 25.8172 80.013 25.8172C79.552 25.8172 79.2446 25.5611 79.2446 25.2537V13.3183C79.2446 13.011 79.552 12.8061 79.9618 12.8061C80.3716 12.7548 80.6789 13.011 80.6789 13.3183ZM84.9306 16.1869C84.9306 15.1112 83.9573 14.0355 82.7792 14.0355C81.7547 14.0355 80.7302 14.8551 80.7302 16.1869V18.5433C80.7302 19.0555 81.601 20.2337 82.8304 20.2337C83.9573 20.2337 84.9306 19.158 84.9306 18.031V16.1869Z" fill="#151928" />
                            <path d="M90.3092 18.7483C90.3092 19.8241 90.719 20.1826 91.846 20.1826H92.4094C92.8192 20.1826 93.0754 20.49 93.0754 20.8486C93.0754 21.2071 92.8192 21.5145 92.4094 21.5145H91.846C89.8482 21.5145 88.7725 20.6437 88.7725 18.7483V9.2205C88.7725 8.91315 89.1823 8.70825 89.5408 8.70825C89.9506 8.70825 90.3092 8.91315 90.3092 9.2205V12.755H92.6143C92.8705 12.755 93.0754 13.0624 93.0754 13.3697C93.0754 13.6771 92.8705 13.9844 92.6143 13.9844H90.3092V18.7483Z" fill="#151928" />
                            <path d="M94.9707 18.1335V13.3184C94.9707 13.0622 95.2781 12.7549 95.7391 12.7549C96.1489 12.7549 96.5075 13.011 96.5075 13.3184V18.1335C96.5075 19.2092 97.4295 20.285 98.6077 20.285C99.7859 20.285 100.708 19.2092 100.708 18.1335V13.3184C100.708 13.0622 101.066 12.8061 101.476 12.8061C101.937 12.8061 102.245 13.0622 102.245 13.3184V18.1335C102.245 20.0288 100.605 21.668 98.6077 21.668C96.6099 21.668 94.9707 19.9776 94.9707 18.1335Z" fill="#151928" />
                            <path d="M106.445 20.9508C106.445 21.207 106.087 21.5143 105.677 21.5143C105.216 21.5143 104.909 21.2582 104.909 20.9508V13.3183C104.909 13.011 105.216 12.8061 105.677 12.8061C106.036 12.8061 106.394 13.011 106.394 13.3183V14.0867C106.753 13.3695 107.624 12.7036 108.853 12.7036C110.595 12.7036 112.08 14.2916 112.08 16.2381V21.0021C112.08 21.3606 111.67 21.5655 111.312 21.5655C110.953 21.5655 110.543 21.3606 110.543 21.0021V16.2381C110.543 15.1624 109.57 14.0867 108.443 14.0867C107.47 14.0867 106.445 14.9063 106.445 16.2381V20.9508Z" fill="#151928" />
                            <path d="M121.557 16.0333C121.557 17.5189 120.737 17.5701 119.918 17.5701H115.871V18.1336C115.871 19.5166 116.946 20.3875 118.483 20.3875C119.866 20.3875 120.276 19.6703 120.737 19.6703C121.096 19.6703 121.352 20.0801 121.352 20.3875C121.352 20.8485 120.225 21.7193 118.432 21.7193C116.024 21.7193 114.334 20.285 114.334 18.1336V16.187C114.334 14.2917 115.973 12.7037 118.022 12.7037C119.918 12.6525 121.557 14.0868 121.557 16.0333ZM119.303 16.5456C119.969 16.5456 120.122 16.4431 120.122 15.9309C120.122 14.8552 119.252 13.8307 118.022 13.8307C116.844 13.8307 115.922 14.7015 115.922 15.8284V16.4944H119.303V16.5456Z" fill="#151928" />
                            <path d="M125.296 20.6437C125.296 21.1559 124.886 21.617 124.374 21.617C123.811 21.617 123.401 21.1559 123.401 20.6437C123.401 20.1314 123.811 19.6704 124.374 19.6704C124.835 19.6704 125.296 20.1314 125.296 20.6437Z" fill="#151928" />
                            <path d="M133.697 16.2383V20.951C133.697 21.2583 133.389 21.5145 132.928 21.5145C132.519 21.5145 132.211 21.2583 132.211 20.951V20.2338C131.545 20.951 130.674 21.6681 129.445 21.6681C128.062 21.6681 126.935 20.8998 126.935 19.2093C126.935 17.1603 128.677 16.6481 131.238 16.6481H132.109V16.2383C132.109 15.1626 131.545 13.9332 130.06 13.9332C128.779 13.9332 128.369 14.4454 128.062 14.4454C127.703 14.4454 127.499 13.9844 127.499 13.677C127.499 13.1136 128.882 12.6013 130.111 12.6013C132.775 12.6525 133.697 14.3942 133.697 16.2383ZM132.16 17.5701H131.494C129.906 17.5701 128.472 17.7238 128.472 19.0044C128.472 19.9777 129.087 20.3875 129.906 20.3875C130.982 20.3875 132.16 19.363 132.16 18.4922V17.5701Z" fill="#151928" />
                            <path d="M138 9.47654C138 9.93756 137.59 10.3474 137.078 10.3474C136.566 10.3474 136.104 9.93756 136.104 9.47654C136.104 9.01551 136.514 8.60571 137.078 8.60571C137.59 8.60571 138 9.01551 138 9.47654ZM137.846 13.3184V20.9509C137.846 21.2071 137.488 21.5144 137.078 21.5144C136.668 21.5144 136.309 21.2583 136.309 20.9509V13.3184C136.309 13.0111 136.617 12.8062 137.078 12.8062C137.539 12.8062 137.846 13.0111 137.846 13.3184Z" fill="#151928" />
                            <path fill-rule="evenodd" clip-rule="evenodd" d="M43.6947 26.4321C44.5656 24.3831 45.0266 21.9243 45.4364 19.5679C45.5388 18.902 45.6925 18.2361 45.795 17.6214C45.9999 16.5457 46.1023 15.8285 46.0511 15.0601C45.9999 14.2918 45.3339 13.4209 44.4119 13.4209C43.2337 13.3697 42.619 13.9332 42.3629 15.1114L41.9531 17.2116C41.6457 18.8508 41.3384 20.4388 41.031 22.078C41.031 22.1292 41.031 22.2316 40.9798 22.3341C40.7749 23.5122 40.6212 24.1782 40.3139 24.5368C40.2627 24.588 39.8529 25.049 39.2382 24.9466C38.9308 24.8953 38.521 24.6904 38.2137 23.9733C38.1624 23.461 38.0088 22.539 37.9063 22.0267C37.6502 20.7461 37.3941 19.4143 37.1379 18.1336C36.5745 15.3163 36.011 12.4477 35.3451 9.57907C34.8328 7.37639 34.1157 5.07127 33.2448 2.81737C32.4765 0.819599 31.4007 0 29.7615 0C27.7638 0 26.7905 1.28062 25.9709 2.81737C24.844 5.02004 24.2293 7.53007 23.6658 10.3474C23.1535 12.7038 22.6925 15.1626 22.2315 17.4677C21.9754 18.6971 21.7705 19.8753 21.5143 21.1047C21.5143 21.2071 20.9509 23.6659 20.8996 23.8708C20.6435 24.5367 20.2337 24.8953 19.7727 24.8953C19.0555 24.8953 18.697 24.0245 18.6457 23.7684C18.6457 23.7172 18.4408 23.0512 18.3896 22.9488C18.2872 22.6414 18.1847 22.3341 18.1335 22.0267C17.8774 20.6949 17.6212 19.363 17.3139 18.0312C16.7504 15.2138 16.1869 12.294 15.521 9.47661C15.0088 7.22272 14.2916 5.02004 13.4208 2.76615C12.7036 0.973274 11.3718 0.30735 10.1936 0.256125C10.1936 0.256125 7.52992 0.153675 6.30052 2.81737C5.27602 4.91759 4.50765 7.32517 3.84173 10.3987C3.43193 12.294 3.1758 13.6771 3.07335 15.0089C3.02213 15.8285 3.53438 16.6481 4.25152 16.9042C4.815 17.1091 5.37847 17.0579 5.8395 16.8018C6.2493 16.5457 6.55665 16.0846 6.71032 15.5212C7.01767 14.0869 7.2738 12.6013 7.52992 11.2183C7.6836 10.5011 8.45197 6.71047 8.60565 6.24944C8.75932 5.78842 9.06667 4.7127 9.83504 4.7127C9.83504 4.7127 9.83504 4.7127 9.88627 4.7127C10.6034 4.76392 10.9108 5.68597 11.1157 6.55679C11.2181 6.96659 11.423 7.99109 11.5767 8.91314C11.6791 9.37417 11.7816 9.83519 11.8328 10.1425C12.1402 11.5768 12.3963 13.0111 12.7036 14.3942C12.8573 15.2138 13.0622 15.9822 13.2159 16.8018C13.7794 19.363 14.3428 22.0267 15.0088 24.588C15.4186 26.0735 16.1357 27.4053 16.648 28.2249C17.2627 29.2494 18.2872 29.8129 19.3629 29.8641C21.1558 29.9154 22.7437 28.6347 23.5633 26.5345C24.6903 23.6659 25.305 20.5412 25.9197 17.4677C25.9197 17.4677 27.4052 9.83519 27.7125 8.45212C27.7638 8.09354 28.2248 6.24944 28.3272 5.94209C28.737 4.7127 29.3005 4.61025 29.5567 4.61025H29.6079C30.3762 4.61025 30.8885 5.73719 31.5544 9.11804L31.6056 9.32294C31.9642 10.9109 32.2716 12.5501 32.5789 14.1381C33.1424 16.9042 33.7059 19.7216 34.3206 22.4878C34.8328 24.8953 35.4987 26.5345 36.472 27.9176C37.8039 29.8129 39.648 30.1715 41.5945 28.9933C42.4653 28.4811 43.2337 27.5078 43.6947 26.4321Z" fill="#151928" />
                            <path fill-rule="evenodd" clip-rule="evenodd" d="M2.30512 24.9978C1.0245 25.049 0 26.0735 0 27.3542C0 27.9688 0.256126 28.5323 0.71715 28.9933C1.17817 29.4544 1.74165 29.7105 2.35635 29.7105C2.91982 29.7105 3.53452 29.4031 3.94432 28.9421C4.35412 28.4811 4.61025 27.9176 4.61025 27.3542C4.61025 26.0735 3.53452 24.9978 2.30512 24.9978Z" fill="#151928" />
                        </svg>