<?xml version="1.0" standalone="no"?>
<!DOCTYPE svg PUBLIC "-//W3C//DTD SVG 20010904//EN"
 "http://www.w3.org/TR/2001/REC-SVG-20010904/DTD/svg10.dtd">
<svg version="1.0" xmlns="http://www.w3.org/2000/svg"
 width="125.000000pt" height="32.000000pt" viewBox="0 0 125.000000 32.000000"
 preserveAspectRatio="xMidYMid meet">

<g transform="translate(0.000000,32.000000) scale(0.100000,-0.100000)"
fill="#000000" stroke="none">
<path d="M160 313 c0 -5 14 -17 30 -26 17 -10 30 -14 30 -10 0 5 -13 17 -30
26 -16 10 -30 14 -30 10z"/>
<path d="M130 276 c0 -2 15 -13 34 -24 19 -11 36 -31 39 -44 4 -21 4 -20 6 5
1 21 -7 32 -31 47 -32 19 -48 25 -48 16z"/>
<path d="M570 185 c0 -50 4 -85 10 -85 6 0 10 9 10 20 0 34 29 36 55 4 13 -16
26 -26 30 -22 4 4 -2 19 -14 34 -25 32 -26 47 -6 64 9 7 13 15 10 18 -3 3 -21
-10 -40 -28 l-35 -34 0 57 c0 31 -4 57 -10 57 -6 0 -10 -35 -10 -85z"/>
<path d="M700 185 c0 -50 4 -85 10 -85 6 0 10 6 10 14 0 7 7 20 16 27 14 11
20 10 40 -14 34 -40 51 -33 19 9 l-27 35 23 25 c12 13 18 24 13 24 -6 0 -23
-13 -39 -30 -16 -16 -32 -30 -37 -30 -4 0 -8 25 -8 55 0 30 -4 55 -10 55 -6 0
-10 -35 -10 -85z"/>
<path d="M990 185 c0 -50 4 -85 10 -85 6 0 10 35 10 85 0 50 -4 85 -10 85 -6
0 -10 -35 -10 -85z"/>
<path d="M49 240 l-24 -21 35 17 c43 21 47 24 28 24 -9 0 -26 -9 -39 -20z"/>
<path d="M83 213 c-18 -9 -33 -21 -33 -26 0 -5 16 1 36 14 30 18 40 20 55 11
11 -7 19 -8 19 -3 0 9 -25 22 -38 20 -4 0 -22 -8 -39 -16z"/>
<path d="M437 202 c-40 -44 -6 -106 54 -100 47 4 71 46 49 86 -20 35 -77 43
-103 14z m71 -8 c26 -18 28 -41 5 -66 -20 -22 -37 -23 -57 -2 -21 21 -20 61 2
73 23 14 24 14 50 -5z"/>
<path d="M830 186 c0 -19 4 -46 10 -61 9 -23 14 -25 60 -24 l50 2 0 59 c0 32
-4 58 -10 58 -5 0 -10 -20 -10 -45 0 -34 -5 -47 -19 -55 -25 -13 -27 -13 -45
6 -9 9 -16 32 -16 55 0 21 -4 39 -10 39 -5 0 -10 -15 -10 -34z"/>
<path d="M1044 208 c-5 -8 0 -9 16 -5 25 6 60 -7 60 -23 0 -6 -13 -10 -28 -10
-37 0 -65 -21 -60 -46 3 -16 12 -19 56 -20 l52 -2 0 47 c0 26 -5 52 -12 59
-15 15 -75 16 -84 0z m76 -66 c0 -14 -23 -32 -41 -32 -21 0 -33 16 -24 30 7
12 65 14 65 2z"/>
<path d="M1170 158 c0 -32 4 -58 10 -58 6 0 10 17 10 38 0 42 6 54 35 70 17
10 15 11 -17 10 l-38 -1 0 -59z"/>
<path d="M103 168 c-19 -9 -23 -19 -23 -60 0 -26 4 -48 10 -48 5 0 7 7 4 15
-10 24 5 85 21 85 8 0 17 5 20 10 8 13 -3 12 -32 -2z"/>
<path d="M1220 160 c0 -5 7 -10 15 -10 8 0 15 5 15 10 0 6 -7 10 -15 10 -8 0
-15 -4 -15 -10z"/>
<path d="M43 105 c0 -22 2 -30 4 -17 2 12 2 30 0 40 -3 9 -5 -1 -4 -23z"/>
<path d="M130 105 c0 -18 11 -32 38 -49 20 -13 41 -21 46 -19 4 3 -9 15 -30
27 -28 16 -39 29 -38 44 0 12 -3 22 -8 22 -4 0 -8 -11 -8 -25z"/>
<path d="M149 19 c13 -11 26 -17 29 -14 7 6 -29 34 -43 34 -5 0 1 -9 14 -20z"/>
</g>
</svg>
