<svg width="125" height="24" xmlns="http://www.w3.org/2000/svg" xmlns:xlink="http://www.w3.org/1999/xlink" overflow="hidden"><defs><clipPath id="clip0"><rect x="324" y="344" width="125" height="24"/></clipPath><clipPath id="clip1"><rect x="325" y="344" width="124" height="24"/></clipPath><clipPath id="clip2"><rect x="325" y="344" width="124" height="24"/></clipPath><clipPath id="clip3"><rect x="325" y="344" width="124" height="24"/></clipPath></defs><g clip-path="url(#clip0)" transform="translate(-324 -344)"><g clip-path="url(#clip1)"><g clip-path="url(#clip2)"><g clip-path="url(#clip3)"><path d="M17.8414 13.4362 17.8414 20.9479 17.3719 21.4173 13.6157 25.1742 11.2685 27.5214C10.2307 28.5585 8.54943 28.5585 7.51231 27.5214 6.47516 26.4843 6.47516 24.8024 7.51231 23.7653L9.85949 21.4173 13.6157 17.6619 14.0851 17.1924 17.8414 13.4362ZM67.797 12.791C69.1296 12.791 70.1754 13.206 70.9377 14.0373 71.7006 14.8673 72.1076 16.0519 72.1628 17.589 72.1743 17.7384 72.1805 17.9394 72.1822 18.1929L72.1826 18.3513C72.1826 18.6806 72.1767 18.9415 72.1628 19.1334 72.1076 20.6175 71.6953 21.7841 70.9277 22.6353 70.1582 23.4866 69.1137 23.9122 67.797 23.9122 66.4644 23.9122 65.4684 23.4587 64.8104 22.553L64.8104 27.104C64.8104 27.2553 64.7619 27.3789 64.6656 27.4745 64.57 27.5714 64.4465 27.6192 64.2951 27.6192L61.6385 27.6192C61.4885 27.6192 61.3603 27.5714 61.2581 27.4745 61.1545 27.3789 61.1027 27.2553 61.1027 27.104L61.1027 13.5114C61.1027 13.3607 61.1545 13.2366 61.2581 13.1416 61.3603 13.0447 61.4885 12.9962 61.6385 12.9962L64.0893 12.9962C64.2401 12.9962 64.3642 13.0447 64.4592 13.1416 64.5568 13.2366 64.6039 13.3607 64.6039 13.5114L64.6039 14.2531C65.3462 13.2777 66.4093 12.791 67.797 12.791ZM28.0488 9.08375C29.2579 9.08375 30.3037 9.2929 31.1901 9.71189 32.0752 10.1309 32.7558 10.6521 33.2279 11.2762 33.7026 11.9018 33.9523 12.5159 33.9809 13.1202 33.9809 13.2436 33.9384 13.3499 33.8567 13.4395 33.7743 13.5291 33.6721 13.5737 33.5486 13.5737L30.6642 13.5737C30.3627 13.5737 30.129 13.4495 29.965 13.2025 29.8827 12.9143 29.6683 12.6706 29.3263 12.4714 28.983 12.2723 28.5573 12.1726 28.0488 12.1726 27.4724 12.1726 27.0269 12.2756 26.7102 12.4814 26.3947 12.6879 26.2374 12.9894 26.2374 13.3877 26.2374 13.7868 26.4419 14.0982 26.8549 14.3253 27.2666 14.5517 28.0362 14.7821 29.1603 15.0152 30.4511 15.2489 31.4783 15.5404 32.2392 15.8903 33.0022 16.2403 33.5652 16.6938 33.9291 17.2495 34.2929 17.806 34.4755 18.5091 34.4755 19.3604 34.4755 20.2945 34.2073 21.1047 33.6721 21.7905 33.1362 22.4778 32.3952 23.003 31.4471 23.3662 30.4995 23.73 29.4153 23.912 28.1935 23.912 26.8609 23.912 25.7281 23.7194 24.7945 23.3356 23.861 22.9512 23.1532 22.4433 22.6744 21.8112 22.193 21.1803 21.9381 20.4931 21.9115 19.7521 21.9115 19.6286 21.9573 19.5257 22.0456 19.4433 22.1346 19.3604 22.2415 19.3192 22.3644 19.3192L25.1046 19.3192C25.2687 19.3192 25.4027 19.3464 25.505 19.4022 25.6093 19.4566 25.7215 19.5529 25.845 19.6903 26.023 20.0197 26.3018 20.2913 26.6803 20.503 27.0568 20.7176 27.5614 20.8224 28.1935 20.8224 28.9338 20.8224 29.5042 20.7096 29.9026 20.4832 30.3004 20.2567 30.4995 19.9447 30.4995 19.5463 30.4995 19.2574 30.3973 19.021 30.1915 18.8357 29.985 18.6499 29.655 18.4852 29.2027 18.3418 28.7499 18.197 28.0966 18.0363 27.246 17.857 25.5834 17.5277 24.3417 17.0264 23.5191 16.3531 22.6944 15.6811 22.2821 14.7197 22.2821 13.4707 22.2821 12.6189 22.5197 11.8606 22.9925 11.1946 23.4672 10.5292 24.1392 10.0107 25.0104 9.64018 25.8842 9.26833 26.896 9.08375 28.0488 9.08375ZM105.28 12.791C106.461 12.791 107.461 13.0274 108.277 13.5015 109.095 13.9749 109.705 14.6269 110.11 15.4576 110.514 16.2889 110.717 17.2324 110.717 18.2901L110.717 18.8041C110.717 18.9555 110.666 19.0823 110.563 19.1859 110.461 19.2881 110.333 19.34 110.181 19.34L103.654 19.34 103.654 19.4634C103.668 20.0816 103.812 20.5796 104.087 20.9567 104.36 21.3346 104.752 21.5231 105.26 21.5231 105.59 21.5231 105.853 21.4581 106.053 21.3266 106.252 21.1971 106.441 21.0285 106.619 20.822 106.743 20.6859 106.842 20.6002 106.917 20.5657 106.993 20.5311 107.114 20.5145 107.277 20.5145L109.977 20.5145C110.1 20.5145 110.205 20.5517 110.296 20.6274 110.385 20.7031 110.428 20.7954 110.428 20.905 110.428 21.2629 110.226 21.6805 109.822 22.1619 109.417 22.642 108.826 23.0543 108.05 23.3969 107.274 23.7402 106.358 23.9122 105.302 23.9122 103.626 23.9122 102.308 23.462 101.346 22.5636 100.385 21.6639 99.891 20.3565 99.8648 18.6394L99.8648 18.0007C99.9179 16.3679 100.426 15.0904 101.388 14.1701 102.349 13.2512 103.646 12.791 105.28 12.791ZM122.744 9.08382C122.895 9.08382 123.023 9.1323 123.125 9.22792 123.227 9.3242 123.279 9.44701 123.279 9.59775L123.279 23.1916C123.279 23.343 123.227 23.4665 123.125 23.5621 123.023 23.6584 122.895 23.7062 122.744 23.7062L120.293 23.7062C120.155 23.7062 120.036 23.6551 119.932 23.5522 119.83 23.4492 119.777 23.329 119.777 23.1916L119.777 22.5528C119.037 23.4586 117.973 23.9121 116.587 23.9121 115.254 23.9121 114.207 23.4931 113.445 22.6558 112.683 21.8185 112.274 20.624 112.221 19.0722L112.198 18.3511 112.221 17.6108C112.274 16.1135 112.686 14.9362 113.456 14.0783 114.223 13.2205 115.267 12.7909 116.587 12.7909 117.822 12.7909 118.817 13.1893 119.571 13.9847L119.571 9.59775C119.571 9.44701 119.623 9.3242 119.725 9.22792 119.83 9.1323 119.951 9.08382 120.088 9.08382L122.744 9.08382ZM39.3155 12.9961C39.4662 12.9961 39.5943 13.0445 39.6959 13.1415 39.7982 13.2364 39.8506 13.3606 39.8506 13.5113L39.8506 23.1916C39.8506 23.343 39.7982 23.4665 39.6959 23.5621 39.5943 23.6584 39.4662 23.7055 39.3155 23.7055L36.7412 23.7055C36.6038 23.7055 36.4829 23.6551 36.3806 23.5522 36.277 23.4492 36.2253 23.329 36.2253 23.1916L36.2253 13.5113C36.2253 13.3606 36.277 13.2364 36.3806 13.1415 36.4829 13.0445 36.6038 12.9961 36.7412 12.9961L39.3155 12.9961ZM55.0488 12.7909C56.175 12.7909 57.0919 13.1713 57.7991 13.9343 58.5049 14.6959 58.8582 15.832 58.8582 17.3418L58.8582 23.1916C58.8582 23.329 58.8116 23.4492 58.7147 23.5522 58.6185 23.6551 58.4949 23.7055 58.3442 23.7055L55.8117 23.7055C55.6604 23.7055 55.5335 23.6584 55.4293 23.5621 55.327 23.4665 55.2752 23.343 55.2752 23.1916L55.2752 17.4859C55.2752 16.8552 55.1412 16.3917 54.8742 16.0962 54.6059 15.8014 54.246 15.6534 53.7932 15.6534 53.3676 15.6534 53.0203 15.8014 52.7527 16.0962 52.4845 16.3917 52.3504 16.8552 52.3504 17.4859L52.3504 23.1916C52.3504 23.329 52.3032 23.4492 52.2063 23.5522 52.1107 23.6551 51.9865 23.7055 51.8358 23.7055L49.3033 23.7055C49.1526 23.7055 49.0251 23.6584 48.9215 23.5621 48.8186 23.4665 48.7668 23.343 48.7668 23.1916L48.7668 17.4859C48.7668 16.8552 48.6294 16.3917 48.3565 16.0962 48.0816 15.8014 47.7244 15.6534 47.2855 15.6534 46.8598 15.6534 46.5093 15.8014 46.2344 16.0962 45.9602 16.3917 45.8227 16.8479 45.8227 17.4654L45.8227 23.1916C45.8227 23.329 45.7736 23.4492 45.6779 23.5522 45.5823 23.6551 45.4588 23.7055 45.3074 23.7055L42.7132 23.7055C42.5758 23.7055 42.4549 23.6551 42.3527 23.5522 42.2491 23.4492 42.1973 23.329 42.1973 23.1916L42.1973 13.5113C42.1973 13.3606 42.2491 13.2364 42.3527 13.1415 42.4549 13.0445 42.5758 12.9961 42.7132 12.9961L45.1016 12.9961C45.2523 12.9961 45.3765 13.0445 45.4715 13.1415 45.5678 13.2364 45.6162 13.3606 45.6162 13.5113L45.6162 14.2111C45.9462 13.8135 46.3718 13.4775 46.8931 13.2026 47.4143 12.9283 48.0065 12.7909 48.6645 12.7909 50.1745 12.7909 51.211 13.3812 51.7734 14.5618 52.104 14.0405 52.5635 13.6149 53.1551 13.2856 53.7447 12.9555 54.3762 12.7909 55.0488 12.7909ZM77.2714 9.08367C77.4223 9.08367 77.5456 9.13208 77.6419 9.22769 77.7368 9.32398 77.7861 9.44753 77.7861 9.5982L77.7861 23.1914C77.7861 23.3289 77.7368 23.4491 77.6419 23.5519 77.5456 23.6555 77.4223 23.706 77.2714 23.706L74.6967 23.706C74.5466 23.706 74.4184 23.6589 74.3169 23.5619 74.2127 23.4663 74.1608 23.3428 74.1608 23.1914L74.1608 9.5982C74.1608 9.44753 74.2127 9.32398 74.3169 9.22769 74.4184 9.13208 74.5466 9.08367 74.6967 9.08367L77.2714 9.08367ZM83.2234 12.9961C83.3736 12.9961 83.5013 13.0445 83.6036 13.1415 83.706 13.2364 83.7583 13.3606 83.7583 13.5113L83.7583 23.1916C83.7583 23.343 83.706 23.4665 83.6036 23.5621 83.5013 23.6584 83.3736 23.7055 83.2234 23.7055L80.6486 23.7055C80.5111 23.7055 80.3908 23.6551 80.2885 23.5522 80.1847 23.4492 80.1331 23.329 80.1331 23.1916L80.1331 13.5113C80.1331 13.3606 80.1847 13.2364 80.2885 13.1415 80.3908 13.0445 80.5111 12.9961 80.6486 12.9961L83.2234 12.9961ZM97.4147 8.46614C97.5648 8.46614 97.6873 8.51327 97.7845 8.61023 97.8801 8.70652 97.9286 8.83 97.9286 8.98074L97.9286 10.7522C97.9286 10.8897 97.8801 11.0092 97.7845 11.1121 97.6873 11.2157 97.5648 11.2661 97.4147 11.2661L92.1215 11.2661C91.6808 11.2661 91.3686 11.3665 91.1826 11.5649 90.9981 11.7642 90.9062 12.0703 90.9062 12.4819L90.9062 12.9959 97.4147 12.9959C97.5648 12.9959 97.6873 13.045 97.7845 13.1413 97.8801 13.2369 97.9286 13.3611 97.9286 13.5118L97.9286 23.1914C97.9286 23.3289 97.8801 23.4491 97.7845 23.5519 97.6873 23.6555 97.5648 23.706 97.4147 23.706L94.8996 23.706C94.7494 23.706 94.6232 23.6589 94.5201 23.5619 94.4178 23.4663 94.3655 23.3428 94.3655 23.1914L94.3655 15.7979 90.9062 15.7979 90.9062 23.1914C90.9062 23.3289 90.8576 23.4491 90.762 23.5519 90.6649 23.6555 90.5402 23.706 90.39 23.706L87.8772 23.706C87.7263 23.706 87.5993 23.6589 87.4969 23.5619 87.3931 23.4663 87.3431 23.3428 87.3431 23.1914L87.3431 15.7979 85.7968 15.7979C85.6466 15.7979 85.5189 15.7501 85.4173 15.6538 85.3127 15.5568 85.2634 15.434 85.2634 15.2826L85.2634 13.5118C85.2634 13.3611 85.3127 13.2369 85.4173 13.1413 85.5189 13.045 85.6466 12.9959 85.7968 12.9959L87.3431 12.9959 87.3431 12.3783C87.3431 11.0059 87.7397 10.0105 88.536 9.39307 89.333 8.7742 90.4714 8.46614 91.9557 8.46614L97.4147 8.46614ZM117.78 15.654C117.163 15.654 116.719 15.8352 116.452 16.1992 116.184 16.563 116.03 17.067 115.988 17.7124L115.968 18.3511 115.988 18.9899C116.03 19.6353 116.184 20.1399 116.452 20.5031 116.719 20.8676 117.163 21.0503 117.78 21.0503 118.369 21.0503 118.811 20.861 119.099 20.4832 119.387 20.1054 119.545 19.6287 119.571 19.0523 119.599 18.6672 119.613 18.4062 119.613 18.2688 119.613 18.118 119.599 17.8644 119.571 17.5079 119.545 16.972 119.384 16.5285 119.089 16.1786 118.793 15.8287 118.357 15.654 117.78 15.654ZM66.6018 15.6535C66.0116 15.6535 65.5727 15.842 65.2845 16.2199 64.9963 16.597 64.8389 17.0751 64.8104 17.6514 64.7988 17.8003 64.7927 18.0058 64.791 18.2692L64.7905 18.4342C64.7905 18.7636 64.7964 19.0179 64.8104 19.1959 64.8389 19.7317 64.9996 20.1739 65.2944 20.5239 65.59 20.8744 66.0255 21.0497 66.6018 21.0497 67.2207 21.0497 67.6629 20.8678 67.9312 20.5033 68.1987 20.1401 68.3534 19.6347 68.3933 18.99 68.4072 18.8532 68.4152 18.6394 68.4152 18.3513 68.4152 18.0625 68.4072 17.8499 68.3933 17.7125 68.3534 17.0671 68.1987 16.5625 67.9312 16.1993 67.6629 15.8354 67.2207 15.6535 66.6018 15.6535ZM16.9025 12.4971 13.1464 16.2533 12.677 16.7227 8.92075 20.479 8.45135 20.9484 0.938949 20.9484 5.16458 16.7227 8.92075 12.9666 9.39024 12.4971 16.9025 12.4971ZM6.5731 5.92371C7.61024 4.88656 9.29216 4.88656 10.3293 5.92371 11.3665 6.96087 11.3665 8.64272 10.3293 9.67992L3.75579 16.2534 0.000265596 20.0089 0.000265596 12.4972 0.469706 12.0271 4.22523 8.27155ZM105.28 15.1183C104.758 15.1183 104.356 15.3003 104.076 15.6634 103.795 16.0273 103.654 16.5392 103.654 17.1979L103.654 17.2391 106.928 17.2391 106.928 17.1979C106.928 16.5392 106.783 16.0273 106.495 15.6634 106.207 15.3003 105.803 15.1183 105.28 15.1183ZM39.3155 8.52739C39.4662 8.52739 39.5943 8.57923 39.6959 8.68209 39.7982 8.78503 39.8506 8.91187 39.8506 9.06261L39.8506 10.9782C39.8506 11.1303 39.7982 11.2564 39.6959 11.3593 39.5943 11.4622 39.4662 11.5141 39.3155 11.5141L36.7412 11.5141C36.5884 11.5141 36.4663 11.4622 36.3687 11.3593 36.2737 11.2564 36.2253 11.1303 36.2253 10.9782L36.2253 9.06261C36.2253 8.91187 36.277 8.78503 36.3806 8.68209 36.4829 8.57923 36.6038 8.52739 36.7412 8.52739L39.3155 8.52739ZM83.2234 8.52739C83.3736 8.52739 83.5013 8.57923 83.6036 8.68209 83.706 8.78503 83.7583 8.91187 83.7583 9.06261L83.7583 10.9782C83.7583 11.1303 83.706 11.2564 83.6036 11.3593 83.5013 11.4622 83.3736 11.5141 83.2234 11.5141L80.6486 11.5141C80.4962 11.5141 80.3737 11.4622 80.2766 11.3593 80.1817 11.2564 80.1331 11.1303 80.1331 10.9782L80.1331 9.06261C80.1331 8.91187 80.1847 8.78503 80.2885 8.68209 80.3908 8.57923 80.5111 8.52739 80.6486 8.52739L83.2234 8.52739Z" fill="#00B0F0" fill-rule="evenodd" fill-opacity="1" transform="matrix(1 0 0 1.00403 325 339.5)"/></g></g></g></g></svg>